{"glyphs":{"0":{"ha":735,"x_min":0,"x_max":0,"o":"m 813 399 b 338 -69 785 175 581 -69 b -10 326 125 -69 -10 119 b -7 383 -10 344 -8 365 b 469 844 21 624 236 844 b 815 451 678 844 815 656 b 813 399 815 433 815 417 m 531 311 b 458 465 538 361 528 465 b 363 347 404 465 368 406 b 446 186 354 276 379 186 b 531 311 503 186 526 268 "},"1":{"ha":457,"x_min":0,"x_max":0,"o":"m 90 685 b 496 843 122 747 428 868 b 440 490 475 725 454 607 b 419 168 428 383 419 276 b 422 63 419 133 421 97 b 153 -33 381 22 242 -24 b 88 -35 125 -37 104 -37 b 56 288 67 51 56 167 b 72 567 56 381 61 478 b 90 685 76 607 82 647 "},"2":{"ha":719,"x_min":0,"x_max":0,"o":"m 793 639 b 363 181 767 451 531 300 b 708 238 489 213 601 231 b 725 169 719 231 725 203 b 722 129 725 156 724 143 b 699 58 718 100 710 74 b 67 -64 536 43 264 -17 b 24 -35 46 -62 29 -47 b 8 46 17 -12 8 14 b 13 85 8 58 10 71 b 397 465 61 225 388 388 b 381 472 397 469 394 474 b 101 314 322 468 171 389 b 3 565 31 357 3 486 b 7 613 3 585 4 601 b 565 872 107 771 388 872 b 796 681 693 871 796 811 b 793 639 796 668 794 654 "},"3":{"ha":731,"x_min":0,"x_max":0,"o":"m 19 10 b 133 199 11 32 76 171 b 300 156 185 174 239 156 b 435 201 351 156 431 164 b 307 242 439 242 333 242 b 243 235 282 242 260 239 b 231 311 229 256 226 282 b 239 356 232 326 235 342 b 417 468 286 368 411 413 b 368 490 418 490 390 493 b 158 354 285 481 219 424 b 7 593 71 357 -6 517 b 425 858 64 693 254 835 b 514 865 456 863 483 865 b 806 668 656 865 793 815 b 804 629 806 654 806 642 b 639 406 793 543 728 468 b 760 251 707 389 771 336 b 374 -44 742 101 531 -19 b 250 -56 336 -50 296 -56 b 19 10 143 -56 56 -31 "},"4":{"ha":756,"x_min":0,"x_max":0,"o":"m 703 38 b 471 -57 682 3 549 -47 b 429 -56 454 -58 439 -60 b 404 79 421 -18 410 38 b 43 11 272 49 154 25 b -7 6 25 8 10 6 b -40 97 -24 17 -40 56 b -33 139 -40 111 -39 126 b 356 801 -10 206 229 633 b 629 853 403 826 532 853 b 739 822 682 853 726 844 b 692 290 715 681 693 415 b 806 324 732 301 771 311 b 821 229 817 306 826 263 b 806 192 819 214 815 200 b 689 153 781 181 738 167 b 703 38 690 117 697 67 m 374 368 b 251 197 351 344 288 260 l 386 221 b 374 368 379 286 378 304 "},"5":{"ha":749,"x_min":0,"x_max":0,"o":"m 751 904 b 778 756 771 883 778 821 b 772 654 778 719 776 683 b 750 561 768 618 761 586 b 351 476 647 550 481 514 b 357 411 351 449 354 426 b 629 464 443 436 535 464 b 804 314 733 464 817 428 b 311 -44 782 118 492 -22 b 231 -49 282 -46 256 -49 b 29 8 149 -49 82 -32 b 133 179 31 56 85 140 b 236 168 153 172 196 168 b 464 253 308 168 456 199 b 421 274 467 269 444 274 b 374 271 404 274 383 271 b 82 192 279 260 111 211 b 47 532 56 272 47 407 b 54 715 47 599 50 664 b 751 904 129 768 560 910 "},"6":{"ha":743,"x_min":0,"x_max":0,"o":"m 474 271 b 382 199 440 271 388 233 b 417 168 381 178 394 168 b 518 240 451 168 514 200 b 474 271 519 256 504 271 m 829 782 b 625 478 847 740 704 496 b 540 501 622 488 576 501 b 317 299 429 501 333 408 b 661 439 401 392 554 439 b 801 313 739 439 813 406 b 385 -36 785 156 563 3 b 244 -54 342 -46 294 -54 b -6 200 86 -54 -6 40 b -1 256 -6 218 -4 236 b 640 863 33 529 361 863 b 829 782 721 863 801 833 "},"7":{"ha":644,"x_min":0,"x_max":0,"o":"m 31 411 b 11 531 18 424 11 472 b 18 640 11 567 14 606 b 53 749 24 690 36 733 b 747 888 161 808 538 892 b 764 808 758 881 764 850 b 756 706 764 778 761 743 b 704 513 744 628 726 546 b 250 -43 558 414 311 128 b 110 7 210 -67 122 -19 b 317 474 101 76 221 344 b 31 411 206 456 104 431 "},"8":{"ha":781,"x_min":0,"x_max":0,"o":"m 710 406 b 776 243 753 379 785 315 b 283 -57 751 32 461 -57 b 60 138 132 -57 42 8 b 140 303 67 192 96 253 b 22 506 67 339 11 410 b 575 863 49 731 371 863 b 864 638 699 863 883 806 b 710 406 856 546 788 467 m 494 510 b 456 592 499 540 496 592 b 383 513 417 592 389 556 l 382 499 b 426 424 381 443 404 424 b 494 510 468 424 490 465 m 503 194 b 464 247 506 229 488 247 b 408 182 435 247 413 218 b 447 129 406 147 422 129 b 503 194 479 129 497 154 "},"9":{"ha":743,"x_min":0,"x_max":0,"o":"m 132 -50 b 114 22 118 -40 110 -7 b 122 60 115 36 117 51 b 406 217 240 76 350 140 b 215 160 347 182 285 160 b 0 408 68 160 -7 257 b 535 872 21 649 306 872 b 829 554 707 872 829 731 b 826 506 829 539 829 522 b 568 94 806 333 696 194 b 183 -54 456 10 306 -54 b 132 -50 167 -54 149 -53 m 340 360 b 461 458 390 360 454 397 b 417 506 464 478 450 506 b 299 410 368 506 306 467 b 340 360 294 381 308 360 "}," ":{"ha":219,"x_min":0,"x_max":0,"o":""},"!":{"ha":543,"x_min":0,"x_max":0,"o":"m 136 69 b 411 311 153 192 285 311 b 519 168 493 311 529 251 b 246 -56 504 49 367 -56 b 136 69 165 -57 128 -7 m 126 775 b 563 932 156 831 433 932 b 603 926 581 932 593 931 b 460 406 510 646 482 543 b 228 311 432 368 244 299 b 122 728 181 361 122 593 b 126 775 122 744 124 761 "},"\"":{"ha":831,"x_min":0,"x_max":0,"o":"m 796 579 b 567 463 785 532 610 458 b 496 826 543 499 492 692 b 475 556 483 757 475 635 b 478 501 475 533 476 515 b 257 382 461 468 307 381 b 156 768 211 421 143 656 b 501 861 194 810 407 875 b 800 954 538 900 699 954 b 842 950 815 954 831 953 b 796 579 822 872 785 646 "},"#":{"ha":1236,"x_min":0,"x_max":0,"o":"m 274 247 b 263 371 269 288 265 329 l 107 344 b 69 431 86 343 69 390 b 82 482 69 451 74 469 b 256 515 122 492 182 503 b 253 585 254 539 253 563 b 256 651 253 607 254 631 b 589 785 275 700 483 774 b 646 778 618 788 639 785 b 628 576 638 711 632 643 l 726 592 b 736 735 729 644 731 694 l 743 793 b 1074 888 799 849 1001 888 b 1124 876 1097 888 1117 883 b 1076 639 1110 810 1093 728 b 1236 653 1139 644 1194 650 b 1250 564 1250 643 1256 599 b 1233 519 1247 543 1243 525 b 1054 499 1186 515 1124 508 l 1035 367 b 1228 382 1110 374 1178 381 b 1249 313 1242 375 1249 343 b 1236 258 1249 290 1244 268 b 1021 229 1178 253 1104 243 b 1015 101 1018 185 1015 142 b 751 18 1001 64 811 0 b 731 181 743 35 735 97 b 607 160 689 175 647 167 b 606 68 606 125 606 93 l 606 18 b 329 -65 565 -28 389 -71 b 292 100 318 -50 306 13 l 156 74 b 113 175 140 75 113 131 b 122 214 113 190 115 203 m 618 431 l 611 306 l 725 324 b 724 449 724 364 724 406 "},"$":{"ha":856,"x_min":0,"x_max":0,"o":"m 447 458 b 674 419 451 429 565 433 b 881 256 760 408 894 378 b 603 -7 868 138 732 39 l 601 -94 b 383 -185 582 -151 422 -212 l 393 -44 b 113 63 294 -50 163 -33 b 256 261 100 121 176 218 b 68 483 144 289 54 360 b 393 822 82 601 193 746 l 394 906 b 606 986 415 949 568 1003 l 600 861 b 844 772 675 861 806 847 b 850 721 854 761 853 743 b 726 467 843 654 807 538 b 660 504 718 489 682 501 b 593 508 638 506 615 508 b 532 504 572 508 551 506 b 447 458 515 501 443 489 m 468 232 b 285 254 403 232 346 242 b 433 178 290 188 374 178 b 593 222 521 178 590 206 b 544 233 593 232 572 233 b 468 232 521 233 493 232 "},"%":{"ha":1285,"x_min":0,"x_max":0,"o":"m 483 -86 b 371 -46 438 -103 365 -74 b 511 308 374 -7 435 147 b 210 139 433 211 325 139 b 33 346 106 139 33 222 b 36 389 33 360 33 374 b 453 796 64 583 247 796 b 622 563 567 796 638 692 b 614 517 619 546 618 531 l 626 538 b 836 871 693 657 799 829 b 899 890 854 883 874 890 b 1118 781 989 893 1106 839 b 876 515 1047 722 963 625 b 1111 608 944 571 1026 608 b 1285 392 1221 608 1293 521 l 1282 374 b 864 -46 1258 176 1071 -46 b 692 175 753 -46 682 44 b 722 306 693 218 706 261 b 483 -86 618 153 526 3 m 281 429 b 317 344 279 401 275 344 b 374 414 349 344 369 382 b 332 490 376 439 369 490 b 281 429 301 490 285 458 m 942 242 b 976 157 939 214 935 157 b 1033 225 1008 157 1031 194 b 993 303 1036 251 1031 303 b 942 242 961 303 944 269 "},"&":{"ha":936,"x_min":0,"x_max":0,"o":"m 760 650 b 553 385 749 554 657 464 b 638 363 579 376 608 369 b 782 529 690 415 740 469 b 856 429 817 539 856 468 b 793 339 839 401 818 371 b 872 333 831 335 853 333 b 915 335 885 333 897 333 b 778 26 932 293 854 56 b 521 76 714 26 643 42 b 183 -62 421 6 307 -49 b -3 54 79 -75 -4 -22 b 149 263 -3 140 64 206 b 29 533 67 335 17 424 b 443 901 53 732 254 875 b 492 904 460 904 475 904 b 760 650 653 904 774 793 m 356 543 b 408 449 353 506 372 475 b 454 540 433 476 450 506 b 413 618 457 567 450 624 b 356 543 381 614 360 575 m 338 143 b 260 182 310 156 285 168 b 226 139 239 167 228 151 b 249 118 226 133 225 118 b 338 143 269 118 301 126 "},"’":{"ha":419,"x_min":0,"x_max":0,"o":"m 139 844 b 425 943 181 885 336 933 b 481 942 450 947 469 946 b 381 532 418 760 394 646 b 199 464 324 492 229 457 b 138 796 168 508 138 667 b 139 844 138 814 138 829 "},"(":{"ha":668,"x_min":0,"x_max":0,"o":"m 374 268 b 369 210 371 247 369 228 b 590 -7 369 74 442 4 b 542 -106 600 -33 564 -94 b 464 -112 517 -110 490 -112 b 71 268 281 -112 71 -7 b 75 339 71 290 72 314 b 428 903 99 539 235 764 b 663 650 525 915 672 746 b 374 268 558 593 397 456 "},")":{"ha":653,"x_min":0,"x_max":0,"o":"m 335 317 b 338 357 336 331 338 344 b 81 626 338 542 181 613 b 340 978 81 699 231 961 b 651 546 504 917 651 761 b 647 490 651 528 650 510 b 133 -67 614 203 343 -8 b 93 13 111 -65 81 -15 b 335 317 185 50 314 143 "},"*":{"ha":1039,"x_min":0,"x_max":0,"o":"m 669 51 b 508 -14 642 7 529 -32 b 443 171 492 15 465 85 b 278 -15 353 83 292 13 b 118 151 228 -19 99 75 b 253 286 131 181 181 231 b 85 338 176 300 115 317 b 83 374 82 347 82 360 b 231 610 94 463 179 592 b 399 522 269 581 331 551 b 406 614 399 554 401 585 b 424 693 410 642 415 668 b 706 839 458 757 613 828 b 771 829 735 843 757 839 b 708 586 756 778 731 690 b 961 706 814 643 906 689 b 1006 597 1001 710 1017 632 b 731 418 914 547 819 483 b 964 381 831 393 917 381 b 975 332 975 371 978 351 b 925 243 969 299 950 257 l 874 243 b 667 247 814 243 743 244 b 665 179 665 224 665 201 b 669 51 665 133 667 90 "},"+":{"ha":947,"x_min":0,"x_max":0,"o":"m 93 246 b 69 313 79 254 71 281 b 106 436 69 353 75 403 b 315 482 158 453 231 468 b 325 685 314 551 318 618 b 678 832 335 750 551 828 b 757 818 714 835 744 831 b 675 538 726 749 697 644 b 843 551 733 543 792 549 b 893 553 861 553 876 553 b 917 471 917 544 922 506 b 893 414 914 446 906 422 b 644 383 828 414 740 401 b 619 219 633 325 626 268 b 608 94 613 168 608 124 b 431 32 601 68 497 35 b 379 42 407 31 389 33 b 324 310 356 100 333 199 b 93 246 231 286 149 263 "},",":{"ha":457,"x_min":0,"x_max":0,"o":"m 140 19 b 57 164 83 39 49 89 b 303 396 72 282 181 396 b 429 243 383 396 440 338 b 31 -190 406 81 200 -135 l 26 -168 b 140 19 49 -153 131 -71 "},"-":{"ha":681,"x_min":0,"x_max":0,"o":"m 586 585 b 617 469 615 574 624 517 b 594 417 614 444 607 425 b 126 285 414 401 189 310 b 104 369 111 292 104 328 b 107 422 104 388 106 406 b 143 515 113 461 124 497 b 586 585 282 561 435 582 "},".":{"ha":450,"x_min":0,"x_max":0,"o":"m 42 165 b 311 404 56 293 183 404 b 433 258 401 404 443 343 b 158 17 418 131 288 17 b 42 165 71 17 31 79 "},"/":{"ha":586,"x_min":0,"x_max":0,"o":"m 168 -15 b 51 19 125 -32 49 -6 b 197 528 47 81 110 313 b 344 836 247 651 314 793 b 406 856 361 849 381 856 b 633 757 493 863 615 813 b 168 -15 478 586 235 171 "},":":{"ha":550,"x_min":0,"x_max":0,"o":"m 281 457 b 157 611 204 457 146 524 b 408 831 171 728 289 831 b 533 682 485 831 543 772 b 281 457 518 564 404 457 m 269 43 b 146 199 193 43 136 111 b 397 418 160 314 278 418 b 522 268 474 418 533 358 b 269 43 508 151 393 43 "},";":{"ha":544,"x_min":0,"x_max":0,"o":"m 229 415 b 106 568 153 415 94 481 b 357 789 119 685 238 789 b 482 640 433 789 493 731 b 229 415 468 521 353 415 m 196 -6 b 114 138 140 13 106 63 b 358 371 129 256 236 371 b 483 218 440 371 494 311 b 86 -217 463 56 256 -161 l 81 -194 b 196 -6 106 -178 185 -96 "},"<":{"ha":707,"x_min":0,"x_max":0,"o":"m 690 274 b 518 92 697 229 579 99 b 42 229 418 156 181 213 b 81 349 38 246 47 307 b 608 792 168 413 499 653 b 710 679 665 797 721 707 b 393 392 643 589 518 486 b 690 274 478 375 558 346 "},"=":{"ha":796,"x_min":0,"x_max":0,"o":"m 122 618 b 614 692 214 644 442 678 b 740 696 661 693 706 696 b 776 694 754 696 765 696 b 793 626 793 689 797 660 b 758 526 789 593 779 556 b 101 397 576 515 206 414 b 81 519 83 406 74 464 b 122 618 86 558 99 597 m 124 318 b 717 411 215 360 533 396 l 764 415 b 786 343 785 411 792 381 b 749 250 781 306 765 263 b 131 115 560 235 329 160 b 94 193 104 121 94 154 b 97 231 94 206 96 218 b 124 318 103 268 114 306 "},">":{"ha":746,"x_min":0,"x_max":0,"o":"m 89 578 b 264 760 92 625 190 746 b 763 581 371 682 633 610 b 761 547 764 568 763 558 b 719 450 757 517 743 483 l 718 450 b 185 17 544 342 300 156 b 75 146 119 17 63 92 b 418 439 143 240 282 343 b 89 578 328 465 208 497 "},"?":{"ha":875,"x_min":0,"x_max":0,"o":"m 332 406 b 531 563 379 417 526 515 b 506 589 532 574 528 589 b 218 425 440 589 297 503 b 101 713 158 444 78 663 b 683 949 247 865 506 949 b 917 740 814 949 928 872 b 618 401 897 588 754 472 b 614 343 613 386 614 368 b 343 258 582 318 372 244 b 332 406 332 281 331 375 m 294 39 b 504 257 308 125 394 225 b 557 265 525 263 542 265 b 649 135 631 265 660 208 b 449 -62 636 53 563 -32 b 415 -69 438 -67 425 -69 b 294 39 325 -83 283 -35 "},"@":{"ha":1160,"x_min":0,"x_max":0,"o":"m 708 988 b 801 996 740 993 771 996 b 1192 600 1035 996 1199 825 l 1188 549 b 861 154 1160 321 1013 181 b 835 149 854 153 843 151 b 893 6 868 131 893 61 b 885 -39 893 -10 890 -26 b 568 -171 808 -93 719 -144 b 436 -183 528 -179 486 -183 b 26 249 192 -183 18 -22 b 29 288 26 261 28 274 b 708 988 57 610 326 918 m 343 326 b 760 713 349 543 549 713 b 865 699 794 713 829 706 b 863 649 865 686 863 669 b 861 601 863 635 861 618 b 906 379 861 501 872 365 b 950 517 933 392 947 457 b 731 750 951 663 890 750 b 294 346 529 750 321 569 b 292 308 293 333 292 321 b 515 46 288 165 354 46 b 815 149 618 46 719 88 b 719 185 781 153 747 161 b 518 100 668 138 592 100 b 343 326 393 100 338 215 m 608 292 b 649 356 638 292 649 329 b 615 438 650 401 635 439 b 578 356 583 438 579 381 b 608 292 576 335 579 292 "},"A":{"ha":785,"x_min":0,"x_max":0,"o":"m 226 714 b 531 853 268 769 431 839 b 597 856 554 856 581 858 b 860 156 692 710 825 418 b 563 1 840 107 657 11 b 525 171 557 49 542 114 b 278 88 463 160 346 117 b 246 -47 260 33 247 -17 b 158 -58 231 -56 199 -58 b -56 -11 72 -58 -43 -42 b 226 714 15 286 172 618 m 349 276 b 481 318 393 293 443 310 b 425 433 461 368 443 406 b 349 276 406 401 376 344 "},"B":{"ha":743,"x_min":0,"x_max":0,"o":"m 664 399 b 731 256 715 375 740 317 b 271 -44 711 154 606 11 b 64 -67 206 -56 140 -61 b 10 354 26 -49 10 154 b 33 706 10 493 18 631 b 486 865 161 785 375 849 b 589 874 525 871 557 874 b 797 789 690 874 760 843 b 825 653 818 756 832 714 b 664 399 815 567 754 469 m 499 531 b 433 574 511 571 481 579 b 356 556 408 569 381 564 b 347 422 347 508 349 447 b 499 531 386 436 483 482 m 464 271 b 413 288 458 283 442 292 b 347 268 396 286 372 281 b 350 179 346 243 347 188 b 464 271 424 201 475 240 "},"C":{"ha":731,"x_min":0,"x_max":0,"o":"m 660 224 b 718 128 696 226 732 156 b 326 -54 622 36 476 -43 b 290 -56 314 -56 301 -56 b -12 247 118 -56 -12 49 b -10 294 -12 263 -11 279 b 599 858 15 572 333 858 b 653 856 617 858 635 857 b 743 657 719 844 743 746 b 740 603 743 639 743 619 b 715 518 735 565 726 533 b 664 528 701 525 682 528 b 344 274 546 528 361 411 b 464 154 338 210 375 154 b 660 224 531 154 592 178 "},"D":{"ha":724,"x_min":0,"x_max":0,"o":"m 797 511 b 789 433 797 485 793 460 b 185 -50 743 197 539 -10 b 110 -54 160 -53 135 -54 b 44 -49 88 -54 65 -53 b 19 272 26 24 19 146 b 40 657 19 413 29 560 b 49 718 43 681 44 700 b 433 851 197 801 344 839 b 507 857 460 856 485 857 b 797 511 774 857 803 606 m 514 344 b 435 446 526 413 503 454 b 367 418 410 443 390 432 b 357 297 360 371 357 332 b 363 206 357 263 360 232 b 514 344 446 224 501 278 "},"E":{"ha":718,"x_min":0,"x_max":0,"o":"m 93 -44 b 29 -6 71 -47 33 -35 b 10 321 17 64 10 193 b 24 625 10 436 15 551 b 39 693 28 657 32 681 b 788 900 74 729 535 890 b 821 794 811 894 821 851 b 818 725 821 772 819 749 b 761 543 808 651 786 575 b 367 474 663 532 533 517 b 358 404 364 456 363 431 b 640 463 439 431 625 471 b 658 354 664 433 667 389 b 642 310 657 338 651 319 b 354 256 557 304 432 281 b 356 185 354 225 354 200 b 708 247 449 210 606 242 b 733 174 726 242 733 208 b 710 69 733 132 724 85 b 93 -44 522 50 360 14 "},"F":{"ha":717,"x_min":0,"x_max":0,"o":"m 94 -54 b 25 508 57 17 25 286 b 33 681 25 571 28 631 b 42 726 36 696 38 713 b 778 901 181 800 574 901 b 818 900 792 901 806 901 b 826 847 824 892 826 872 b 819 760 826 822 824 793 b 811 694 818 739 815 717 b 761 531 799 625 781 556 b 411 486 638 522 493 506 b 408 417 408 464 408 439 b 643 467 469 433 560 457 b 664 397 657 456 664 429 b 647 308 664 365 657 329 l 614 306 b 408 261 556 299 481 285 b 426 61 411 189 417 122 b 94 -54 390 13 182 -49 "},"G":{"ha":772,"x_min":0,"x_max":0,"o":"m 719 839 b 782 665 767 811 782 739 b 779 603 782 643 781 622 b 743 482 772 549 757 500 b 626 515 711 507 668 515 b 581 513 611 515 596 514 b 333 310 493 499 365 431 b 326 257 329 292 326 274 b 414 146 326 189 368 146 b 582 251 493 146 578 201 b 458 206 588 286 485 233 b 411 336 429 210 403 306 b 681 453 461 393 572 453 b 815 332 758 453 815 413 b 306 -57 815 117 528 -57 b -14 271 122 -57 -14 74 b -11 324 -14 289 -14 306 b 542 864 24 628 313 839 b 601 867 557 867 586 867 b 719 839 646 867 685 858 "},"H":{"ha":826,"x_min":0,"x_max":0,"o":"m 31 672 b 342 771 68 718 247 761 b 396 771 367 774 385 775 b 385 394 390 693 385 547 b 513 428 431 403 474 414 b 492 792 514 586 506 729 b 858 929 536 844 750 915 b 910 926 881 931 897 931 b 875 507 911 856 896 683 b 808 106 857 356 833 204 b 488 0 779 56 500 -33 l 493 42 b 508 272 501 106 506 186 b 386 240 468 260 424 249 b 406 42 392 161 396 92 b 81 -61 396 -1 107 -85 b 31 560 36 64 31 382 l 31 672 "},"I":{"ha":432,"x_min":0,"x_max":0,"o":"m 49 624 b 432 765 68 671 303 765 b 489 756 456 765 474 763 b 443 540 474 711 456 629 b 411 43 418 394 410 118 b 143 -51 399 0 231 -51 b 106 -44 128 -51 115 -49 b 43 488 83 31 43 257 b 49 624 43 533 44 579 m 118 949 b 386 1219 142 1061 250 1186 b 446 1229 408 1225 429 1229 b 567 1103 526 1229 567 1176 b 563 1063 567 1090 565 1076 b 256 803 536 924 388 818 b 118 949 149 792 103 854 "},"J":{"ha":768,"x_min":0,"x_max":0,"o":"m 797 521 b 643 504 751 518 699 513 l 643 503 b 660 397 656 468 660 432 b 654 318 660 369 657 343 b 190 -82 622 75 389 -82 b 32 -56 118 -82 67 -74 b 68 63 25 -36 49 43 b 110 58 82 60 96 58 b 169 68 132 58 154 63 b 267 239 243 93 258 156 b 238 417 271 292 265 367 l 56 364 b 13 519 28 369 13 442 b 17 592 13 543 14 568 b 46 683 21 632 31 668 b 831 869 167 757 569 868 b 863 764 854 860 863 817 b 857 690 863 740 860 715 b 797 521 847 601 818 528 "},"K":{"ha":750,"x_min":0,"x_max":0,"o":"m 394 522 b 618 908 458 660 546 826 b 881 694 708 933 881 754 b 550 283 743 547 632 407 l 553 281 b 763 215 618 247 718 210 b 793 224 772 217 782 218 b 665 38 806 185 756 67 b 375 121 592 32 478 72 b 379 -8 374 74 375 29 b 193 -57 350 -29 268 -50 b 147 -58 178 -57 163 -58 b 71 -47 113 -58 83 -56 b 21 518 42 38 21 329 b 25 631 21 563 22 603 b 428 785 40 699 388 813 l 408 643 "},"L":{"ha":643,"x_min":0,"x_max":0,"o":"m 697 260 b 719 147 711 254 729 194 b 694 93 718 128 708 106 b 182 -50 561 60 375 7 b 139 -58 168 -56 153 -58 b 82 -22 118 -58 97 -50 b 26 303 56 46 31 182 b 25 388 25 331 25 358 b 43 715 25 506 31 621 b 376 843 81 754 247 826 b 422 846 393 844 407 846 b 471 839 442 846 458 843 b 438 607 460 765 447 686 l 431 539 b 410 272 418 443 410 351 b 414 192 410 243 411 217 b 697 260 508 221 635 253 "},"M":{"ha":972,"x_min":0,"x_max":0,"o":"m 556 132 b 468 101 529 117 497 104 b 433 103 457 100 446 100 b 361 335 411 156 381 239 b 347 104 351 249 347 168 b 351 4 347 64 349 31 b 125 -49 314 -24 201 -49 b 68 -42 101 -49 81 -46 b 14 500 39 17 14 319 b 21 618 14 554 17 596 b 436 778 93 690 332 774 l 438 781 b 532 382 463 651 476 510 b 656 790 581 521 622 660 b 1022 929 678 835 915 919 b 1067 924 1043 931 1056 931 b 1074 858 1071 908 1074 886 b 1056 657 1074 808 1067 740 b 943 118 1029 464 981 226 b 631 -3 906 53 668 -17 b 643 76 638 22 640 49 l 649 122 b 669 381 658 206 668 294 b 556 132 633 271 592 175 "},"N":{"ha":838,"x_min":0,"x_max":0,"o":"m 564 -4 b 363 339 533 13 410 218 l 363 274 b 375 39 363 182 365 101 b 57 -49 354 1 133 -67 b 13 433 39 11 13 206 b 19 639 13 500 15 568 b 338 756 47 685 235 746 b 388 753 358 757 378 756 b 554 331 406 689 479 453 b 528 807 553 546 531 757 b 843 893 606 858 739 893 b 929 868 886 893 918 885 b 911 629 931 808 921 707 b 839 111 886 421 857 186 b 564 -4 804 57 597 -15 "},"O":{"ha":744,"x_min":0,"x_max":0,"o":"m 818 456 b 346 -50 794 239 592 -21 b 306 -53 332 -51 318 -53 b -15 300 110 -53 -15 108 b -12 347 -15 315 -14 331 b 463 847 13 581 228 818 b 501 850 475 849 489 850 b 819 501 693 850 819 689 b 818 456 819 486 818 471 m 518 356 b 443 496 524 404 511 504 b 347 374 386 492 354 431 b 435 226 342 304 368 218 b 518 356 492 232 514 314 "},"P":{"ha":735,"x_min":0,"x_max":0,"o":"m 394 31 b 136 -62 363 -7 206 -54 b 104 -61 118 -67 106 -65 b 28 597 65 7 28 364 b 33 735 28 651 29 699 b 542 860 192 815 368 860 b 797 718 653 860 758 818 b 813 600 811 682 818 642 b 497 215 800 490 721 306 b 385 181 476 206 454 199 b 394 31 386 125 392 75 m 514 479 b 451 529 508 519 481 532 b 393 506 432 526 413 518 b 385 332 389 443 385 385 b 514 479 426 347 525 393 "},"Q":{"ha":757,"x_min":0,"x_max":0,"o":"m 817 456 b 610 83 800 328 722 185 b 724 61 647 68 686 61 b 797 74 749 61 774 67 b 860 110 818 81 839 89 b 868 6 868 78 871 42 b 760 -146 860 -57 829 -119 b 706 -156 743 -153 724 -156 b 428 -26 611 -156 501 -99 b 339 -47 399 -36 368 -44 b 296 -50 325 -49 310 -50 b -15 293 104 -50 -15 106 b -11 346 -15 310 -14 329 b 468 844 18 610 231 818 b 508 847 481 846 494 847 b 818 506 696 847 818 689 b 817 456 818 489 818 472 m 518 326 b 443 467 522 375 513 474 b 346 343 386 460 354 399 b 431 197 339 272 364 189 b 518 326 489 204 513 283 "},"R":{"ha":769,"x_min":0,"x_max":0,"o":"m 819 240 b 822 206 822 231 824 218 b 689 25 815 143 768 47 b 379 165 581 -4 425 118 b 386 46 381 124 381 83 b 97 -61 363 0 147 -74 b 26 557 58 17 26 342 b 36 718 26 625 29 682 b 518 865 157 810 369 865 b 846 603 678 865 869 804 b 603 261 832 486 753 369 b 750 222 626 240 693 221 b 819 240 779 222 804 228 m 388 506 b 383 410 386 472 383 443 b 386 344 383 392 385 369 b 531 469 453 374 524 417 b 476 526 535 506 511 526 b 388 506 449 526 418 518 "},"S":{"ha":733,"x_min":0,"x_max":0,"o":"m 71 44 b 194 239 71 122 126 200 b 0 463 82 257 -15 329 b 608 863 28 693 328 863 b 771 822 668 863 724 851 b 803 725 793 810 803 768 b 800 688 803 713 801 700 b 726 504 792 610 757 524 b 621 519 704 515 665 519 b 413 483 551 519 468 506 b 363 446 399 479 365 468 b 403 432 361 432 383 432 b 543 436 438 432 490 436 b 592 435 560 436 575 436 b 786 313 694 431 781 394 b 786 276 788 300 788 289 b 263 -69 757 78 457 -69 b 71 44 196 -69 71 -50 m 286 231 b 235 232 268 231 251 231 b 343 165 233 171 304 165 b 499 222 386 164 493 183 b 463 239 500 233 488 239 b 286 231 426 239 365 231 "},"T":{"ha":778,"x_min":0,"x_max":0,"o":"m 42 318 b 14 486 25 326 14 404 b 19 583 14 519 17 554 b 43 668 25 618 31 649 b 844 874 131 728 618 871 b 878 783 871 865 879 829 b 804 497 878 688 856 588 b 590 463 743 492 668 479 b 557 47 569 310 557 126 b 264 -46 540 8 325 -57 b 231 372 250 28 231 186 l 42 318 "},"U":{"ha":789,"x_min":0,"x_max":0,"o":"m 842 881 b 867 640 857 801 867 719 b 860 526 867 601 864 564 b 356 -53 828 239 676 -12 b 294 -57 336 -56 315 -57 b -1 349 99 -57 -1 81 b 6 481 -1 390 1 433 b 26 608 11 522 18 563 b 415 753 64 654 281 738 b 381 528 401 688 389 608 b 368 319 372 456 368 382 b 410 158 368 219 381 149 b 474 349 440 168 463 243 b 481 508 479 397 481 451 b 465 778 481 597 476 692 b 799 879 538 824 701 869 b 842 881 814 881 831 882 "},"V":{"ha":829,"x_min":0,"x_max":0,"o":"m 365 757 b 442 278 360 636 403 428 b 554 776 490 414 543 625 b 556 843 556 800 556 821 b 606 856 565 849 582 853 b 682 860 628 858 656 860 b 942 785 793 860 936 840 b 564 15 857 508 653 154 b 325 -57 528 -19 383 -53 b 7 581 222 40 36 314 b 365 757 31 657 269 760 "},"W":{"ha":1092,"x_min":0,"x_max":0,"o":"m 958 56 b 754 -4 943 42 829 -1 b 706 1 735 -6 718 -3 b 583 260 660 54 619 153 b 478 33 531 154 478 33 b 215 -57 447 0 268 -71 b 18 593 149 -4 18 396 b 243 733 33 631 142 690 b 429 779 274 746 407 803 b 418 592 428 717 422 656 b 414 443 417 543 414 493 b 422 293 414 393 417 343 l 529 635 b 675 692 539 663 649 707 b 775 318 693 571 725 433 b 797 518 788 382 793 450 b 801 606 800 547 801 576 b 804 756 803 643 804 701 b 800 856 804 796 803 835 b 972 892 804 879 882 892 b 1147 875 1032 892 1099 886 b 1224 839 1189 867 1219 853 b 958 56 1206 643 1031 157 "},"X":{"ha":842,"x_min":0,"x_max":0,"o":"m 22 6 b 235 224 64 38 144 121 b 1 471 113 318 8 418 b 394 811 36 617 283 818 b 501 563 406 756 443 661 b 610 724 543 621 578 675 b 686 882 628 756 693 849 b 732 888 699 886 717 888 b 940 775 821 888 950 843 b 643 381 928 706 797 544 b 788 263 685 336 732 297 b 851 244 806 254 825 242 b 603 15 849 144 682 6 b 382 122 543 31 464 69 b 114 -87 274 24 175 -54 b 22 6 79 -93 11 -56 "},"Y":{"ha":811,"x_min":0,"x_max":0,"o":"m 281 200 b 28 563 172 238 47 431 b 354 803 43 661 297 828 b 436 453 350 704 378 513 b 543 857 492 592 532 733 b 631 881 554 874 586 881 b 931 772 750 881 946 826 b 456 -44 856 474 599 83 b 368 -69 432 -61 401 -69 b 153 26 267 -69 143 -4 b 275 190 204 96 218 111 "},"Z":{"ha":726,"x_min":0,"x_max":0,"o":"m 260 182 b 689 243 342 201 558 232 b 724 131 711 239 731 181 b 711 64 722 118 717 74 b 40 -62 579 56 188 -17 b -12 -57 18 -69 -7 -65 b -33 33 -25 -42 -33 -4 b -26 92 -33 54 -32 74 b 369 474 6 183 190 339 b 44 381 281 457 135 406 b 15 522 24 399 15 457 b 21 619 15 556 18 589 b 47 731 26 668 35 706 b 790 885 178 796 590 892 b 817 757 808 872 817 818 b 810 656 817 724 814 689 b 774 501 804 606 797 550 b 260 182 621 411 396 294 "},"[":{"ha":603,"x_min":0,"x_max":0,"o":"m 117 786 b 533 876 204 818 424 865 b 572 879 549 878 563 879 b 589 831 585 874 589 853 b 581 775 589 810 585 789 b 478 749 568 771 524 765 b 471 710 476 736 474 724 b 461 488 465 650 461 571 b 489 31 461 304 475 100 b 596 54 528 42 563 51 b 607 10 606 50 607 31 b 600 -37 607 -10 606 -32 b 188 -156 461 -71 351 -99 b 101 571 147 -69 101 293 b 110 750 101 638 104 699 b 117 786 111 764 114 775 "},"\\":{"ha":582,"x_min":0,"x_max":0,"o":"m 515 3 b 411 -51 504 -24 450 -44 b 372 -49 393 -54 381 -54 b 97 732 331 215 179 626 b 371 888 118 788 272 869 b 424 888 392 890 408 890 b 519 93 468 793 519 313 b 515 3 519 53 518 21 "},"]":{"ha":611,"x_min":0,"x_max":0,"o":"m 443 13 b 143 -50 338 -1 221 -25 b 133 6 138 -33 133 -15 b 138 53 133 19 135 36 b 240 79 163 61 189 71 b 243 197 243 106 243 147 b 207 760 243 383 226 682 b 122 733 181 753 154 744 b 114 789 117 746 114 768 b 118 831 114 804 115 818 b 617 982 186 872 443 958 b 618 856 618 947 618 904 b 593 378 618 717 613 535 b 540 28 579 256 560 133 "},"_":{"ha":815,"x_min":0,"x_max":0,"o":"m 64 -8 b 39 60 46 -3 39 25 b 78 199 39 103 47 163 b 433 264 172 231 306 250 b 764 283 558 278 682 283 l 800 283 b 818 208 818 274 821 242 b 792 151 815 181 806 157 b 742 146 776 151 761 149 b 64 -8 561 128 233 44 "},"a":{"ha":785,"x_min":0,"x_max":0,"o":"m 226 714 b 531 853 268 769 431 839 b 597 856 554 856 581 858 b 860 156 692 710 825 418 b 563 1 840 107 657 11 b 525 171 557 49 542 114 b 278 88 463 160 346 117 b 246 -47 260 33 247 -17 b 158 -58 231 -56 199 -58 b -56 -11 72 -58 -43 -42 b 226 714 15 286 172 618 m 349 276 b 481 318 393 293 443 310 b 425 433 461 368 443 406 b 349 276 406 401 376 344 "},"b":{"ha":743,"x_min":0,"x_max":0,"o":"m 664 399 b 731 256 715 375 740 317 b 271 -44 711 154 606 11 b 64 -67 206 -56 140 -61 b 10 354 26 -49 10 154 b 33 706 10 493 18 631 b 486 865 161 785 375 849 b 589 874 525 871 557 874 b 797 789 690 874 760 843 b 825 653 818 756 832 714 b 664 399 815 567 754 469 m 499 531 b 433 574 511 571 481 579 b 356 556 408 569 381 564 b 347 422 347 508 349 447 b 499 531 386 436 483 482 m 464 271 b 413 288 458 283 442 292 b 347 268 396 286 372 281 b 350 179 346 243 347 188 b 464 271 424 201 475 240 "},"c":{"ha":731,"x_min":0,"x_max":0,"o":"m 660 224 b 718 128 696 226 732 156 b 326 -54 622 36 476 -43 b 290 -56 314 -56 301 -56 b -12 247 118 -56 -12 49 b -10 294 -12 263 -11 279 b 599 858 15 572 333 858 b 653 856 617 858 635 857 b 743 657 719 844 743 746 b 740 603 743 639 743 619 b 715 518 735 565 726 533 b 664 528 701 525 682 528 b 344 274 546 528 361 411 b 464 154 338 210 375 154 b 660 224 531 154 592 178 "},"d":{"ha":724,"x_min":0,"x_max":0,"o":"m 797 511 b 789 433 797 485 793 460 b 185 -50 743 197 539 -10 b 110 -54 160 -53 135 -54 b 44 -49 88 -54 65 -53 b 19 272 26 24 19 146 b 40 657 19 413 29 560 b 49 718 43 681 44 700 b 433 851 197 801 344 839 b 507 857 460 856 485 857 b 797 511 774 857 803 606 m 514 344 b 435 446 526 413 503 454 b 367 418 410 443 390 432 b 357 297 360 371 357 332 b 363 206 357 263 360 232 b 514 344 446 224 501 278 "},"e":{"ha":718,"x_min":0,"x_max":0,"o":"m 49 -57 b 10 317 22 -47 10 132 b 24 625 10 432 15 550 b 39 693 28 657 32 681 b 788 900 74 729 535 890 b 821 794 811 894 821 851 b 818 725 821 772 819 749 b 761 543 808 651 786 575 b 367 474 663 532 533 517 b 358 404 364 456 363 431 b 640 463 439 431 625 471 b 658 354 664 433 667 389 b 642 310 657 338 651 319 b 354 256 557 304 432 281 b 356 185 354 225 354 200 b 693 271 463 203 569 225 b 717 163 715 264 721 207 b 696 106 714 136 706 114 b 49 -57 493 17 285 -32 "},"f":{"ha":717,"x_min":0,"x_max":0,"o":"m 94 -54 b 25 508 57 17 25 286 b 33 681 25 571 28 631 b 42 726 36 696 38 713 b 778 901 181 800 574 901 b 818 900 792 901 806 901 b 826 847 824 892 826 872 b 811 694 826 799 821 747 b 761 531 799 625 781 556 b 411 486 638 522 493 506 b 408 417 408 464 408 439 b 643 467 469 433 560 457 b 664 397 657 456 664 429 b 647 308 664 365 657 329 l 614 306 b 408 261 556 299 481 285 b 426 61 411 189 417 122 b 94 -54 390 13 182 -49 "},"g":{"ha":772,"x_min":0,"x_max":0,"o":"m 719 839 b 782 665 767 811 782 739 b 779 603 782 643 781 622 b 743 482 772 549 757 500 b 626 515 711 507 668 515 b 581 513 611 515 596 514 b 333 310 493 499 365 431 b 326 257 329 292 326 274 b 414 146 326 189 368 146 b 582 251 493 146 578 201 b 458 206 588 286 485 233 b 411 336 429 210 403 306 b 681 453 461 393 572 453 b 815 332 758 453 815 413 b 306 -57 815 117 528 -57 b -14 271 122 -57 -14 74 b -11 324 -14 289 -14 306 b 542 864 24 628 313 839 b 601 867 557 867 586 867 b 719 839 646 867 685 858 "},"h":{"ha":826,"x_min":0,"x_max":0,"o":"m 31 672 b 342 771 68 718 247 761 b 396 771 367 774 385 775 b 385 394 390 693 385 547 b 513 428 431 403 474 414 b 492 792 514 586 506 729 b 858 929 536 844 750 915 b 910 926 881 931 897 931 b 875 507 911 856 896 683 b 808 106 857 356 833 204 b 488 0 779 56 500 -33 l 493 42 b 508 272 501 106 506 186 b 386 240 468 260 424 249 b 406 42 392 161 396 92 b 81 -61 396 -1 107 -85 b 31 560 36 64 31 382 l 31 672 "},"i":{"ha":404,"x_min":0,"x_max":0,"o":"m 14 524 b 397 667 33 572 268 667 b 454 656 419 667 440 663 b 407 440 440 611 422 529 b 383 263 399 383 390 321 b 367 43 372 172 365 89 b 99 -50 354 0 185 -50 b 61 -44 82 -50 69 -49 b 8 382 40 29 8 182 b 14 524 8 428 10 475 m 83 843 b 411 1129 101 989 268 1129 b 531 978 501 1129 540 1065 b 201 701 513 835 340 701 b 83 843 111 700 74 757 "},"j":{"ha":768,"x_min":0,"x_max":0,"o":"m 797 521 b 643 504 751 518 699 513 l 643 503 b 660 397 656 468 660 432 b 654 318 660 369 657 343 b 190 -82 622 75 389 -82 b 32 -56 118 -82 67 -74 b 68 63 25 -36 49 43 b 110 58 82 60 96 58 b 169 68 132 58 154 63 b 267 239 243 93 258 156 b 238 417 271 292 265 367 l 56 364 b 13 519 28 369 13 442 b 17 592 13 543 14 568 b 46 683 21 632 31 668 b 831 869 167 757 569 868 b 863 764 854 860 863 817 b 857 690 863 740 860 715 b 797 521 847 601 818 528 "},"k":{"ha":750,"x_min":0,"x_max":0,"o":"m 394 522 b 618 908 458 660 546 826 b 881 694 708 933 881 754 b 550 283 743 547 632 407 l 553 281 b 763 215 618 247 718 210 b 793 224 772 217 782 218 b 665 38 806 185 756 67 b 375 121 592 32 478 72 b 379 -8 374 74 375 29 b 193 -57 350 -29 268 -50 b 147 -58 178 -57 163 -58 b 71 -47 113 -58 83 -56 b 21 518 42 38 21 329 b 25 631 21 563 22 603 b 428 785 40 699 388 813 l 408 643 "},"l":{"ha":643,"x_min":0,"x_max":0,"o":"m 692 289 b 718 176 706 282 725 226 b 693 122 715 156 707 135 b 149 -61 507 24 268 -46 b 110 -65 132 -62 119 -65 b 26 303 76 -50 32 142 b 25 388 25 331 25 358 b 43 715 25 506 31 621 b 376 843 81 754 247 826 b 422 846 393 844 407 846 b 471 839 442 846 458 843 b 438 607 460 765 447 686 l 431 539 b 411 275 418 443 411 354 b 417 176 411 239 413 206 b 692 289 507 208 604 246 "},"m":{"ha":972,"x_min":0,"x_max":0,"o":"m 556 132 b 468 101 529 117 497 104 b 433 103 457 100 446 100 b 361 335 411 156 381 239 b 347 104 351 249 347 168 b 351 4 347 64 349 31 b 125 -49 314 -24 201 -49 b 68 -42 101 -49 81 -46 b 14 500 39 17 14 319 b 21 618 14 554 17 596 b 436 778 93 690 332 774 l 438 781 b 532 382 463 651 476 510 b 656 790 581 521 622 660 b 1022 929 678 835 915 919 b 1067 924 1043 931 1056 931 b 1074 858 1071 908 1074 886 b 1056 657 1074 808 1067 740 b 943 118 1029 464 981 226 b 631 -3 906 53 668 -17 b 643 76 638 22 640 49 l 649 122 b 669 381 658 206 668 294 b 556 132 633 271 592 175 "},"n":{"ha":838,"x_min":0,"x_max":0,"o":"m 564 -4 b 363 339 533 13 410 218 l 363 274 b 375 39 363 182 365 101 b 57 -49 354 1 133 -67 b 13 433 39 11 13 206 b 19 639 13 500 15 568 b 338 756 47 685 235 746 b 388 753 358 757 378 756 b 554 331 406 689 479 453 b 528 807 553 546 531 757 b 843 893 606 858 739 893 b 929 868 886 893 918 885 b 911 629 931 808 921 707 b 839 111 886 421 857 186 b 564 -4 804 57 597 -15 "},"o":{"ha":744,"x_min":0,"x_max":0,"o":"m 817 456 b 339 -47 790 239 585 -19 b 296 -50 325 -49 310 -50 b -15 293 104 -50 -15 106 b -11 346 -15 310 -14 329 b 468 844 18 610 231 818 b 508 847 481 846 494 847 b 818 506 696 847 818 689 b 817 456 818 489 818 472 m 518 326 b 443 467 522 375 513 474 b 346 343 386 460 354 399 b 431 197 339 272 364 189 b 518 326 489 204 513 283 "},"p":{"ha":735,"x_min":0,"x_max":0,"o":"m 394 31 b 136 -62 363 -7 206 -54 b 104 -61 118 -67 106 -65 b 28 597 65 7 28 364 b 33 735 28 651 29 699 b 542 860 192 815 368 860 b 797 718 653 860 758 818 b 813 600 811 682 818 642 b 497 215 800 490 721 306 b 385 181 476 206 454 199 b 394 31 386 125 392 75 m 514 479 b 451 529 508 519 481 532 b 393 506 432 526 413 518 b 385 332 389 443 385 385 b 514 479 426 347 525 393 "},"q":{"ha":757,"x_min":0,"x_max":0,"o":"m 817 456 b 610 83 800 328 722 185 b 724 61 647 68 686 61 b 797 74 749 61 774 67 b 860 110 818 81 839 89 b 868 6 868 78 871 42 b 760 -146 860 -57 829 -119 b 706 -156 743 -153 724 -156 b 428 -26 611 -156 501 -99 b 339 -47 399 -36 368 -44 b 296 -50 325 -49 310 -50 b -15 293 104 -50 -15 106 b -11 346 -15 310 -14 329 b 468 844 18 610 231 818 b 508 847 481 846 494 847 b 818 506 696 847 818 689 b 817 456 818 489 818 472 m 518 326 b 443 467 522 375 513 474 b 346 343 386 460 354 399 b 431 197 339 272 364 189 b 518 326 489 204 513 283 "},"r":{"ha":769,"x_min":0,"x_max":0,"o":"m 819 240 b 822 206 822 231 824 218 b 689 25 815 143 768 47 b 379 165 581 -4 425 118 b 386 46 381 124 381 83 b 97 -61 363 0 147 -74 b 26 557 58 17 26 342 b 36 718 26 625 29 682 b 518 865 157 810 369 865 b 846 603 678 865 869 804 b 603 261 832 486 753 369 b 750 222 626 240 693 221 b 819 240 779 222 804 228 m 388 506 b 383 410 386 472 383 443 b 386 344 383 392 385 369 b 531 469 453 374 524 417 b 476 526 535 506 511 526 b 388 506 449 526 418 518 "},"s":{"ha":733,"x_min":0,"x_max":0,"o":"m 71 44 b 194 239 71 122 126 200 b 0 463 82 257 -15 329 b 608 863 28 693 328 863 b 771 822 668 863 724 851 b 803 725 793 810 803 768 b 800 688 803 713 801 700 b 726 504 792 610 757 524 b 621 519 704 515 665 519 b 413 483 551 519 468 506 b 363 446 399 479 365 468 b 403 432 361 432 383 432 b 543 436 438 432 490 436 b 592 435 560 436 575 436 b 786 313 694 431 781 394 b 786 276 788 300 788 289 b 263 -69 757 78 457 -69 b 71 44 196 -69 71 -50 m 286 231 b 235 232 268 231 251 231 b 343 165 233 171 304 165 b 499 222 386 164 493 183 b 463 239 500 233 488 239 b 286 231 426 239 365 231 "},"t":{"ha":778,"x_min":0,"x_max":0,"o":"m 42 318 b 14 486 25 326 14 404 b 19 583 14 519 17 554 b 43 668 25 618 31 649 b 844 874 131 728 618 871 b 878 783 871 865 879 829 b 804 497 878 688 856 588 b 590 463 743 492 668 479 b 557 47 569 310 557 126 b 264 -46 540 8 325 -57 b 231 372 250 28 231 186 l 42 318 "},"u":{"ha":789,"x_min":0,"x_max":0,"o":"m 842 881 b 867 640 857 801 867 719 b 860 526 867 601 864 564 b 356 -53 828 239 676 -12 b 294 -57 336 -56 315 -57 b -1 349 99 -57 -1 81 b 6 481 -1 390 1 433 b 26 608 11 522 18 563 b 415 753 64 654 281 738 b 381 528 401 688 389 608 b 368 319 372 456 368 382 b 410 158 368 219 381 149 b 474 349 440 168 463 243 b 481 508 479 397 481 451 b 465 778 481 597 476 692 b 799 879 538 824 701 869 b 842 881 814 881 831 882 "},"v":{"ha":829,"x_min":0,"x_max":0,"o":"m 365 757 b 442 278 360 636 403 428 b 554 776 490 414 543 625 b 556 843 556 800 556 821 b 606 856 565 849 582 853 b 682 860 628 858 656 860 b 942 785 793 860 936 840 b 564 15 857 508 653 154 b 325 -57 528 -19 383 -53 b 7 581 222 40 36 314 b 365 757 31 657 269 760 "},"w":{"ha":1092,"x_min":0,"x_max":0,"o":"m 958 56 b 754 -4 943 42 829 -1 b 706 1 735 -6 718 -3 b 583 260 660 54 619 153 b 478 33 531 154 478 33 b 215 -57 447 0 268 -71 b 18 593 149 -4 18 396 b 243 733 33 631 142 690 b 429 779 274 746 407 803 b 418 592 428 717 422 656 b 414 443 417 543 414 493 b 422 293 414 393 417 343 l 529 635 b 675 692 539 663 649 707 b 775 318 693 571 725 433 b 797 518 788 382 793 450 b 801 606 800 547 801 576 b 804 756 803 643 804 701 b 800 856 804 796 803 835 b 972 892 804 879 882 892 b 1147 875 1032 892 1099 886 b 1224 839 1189 867 1219 853 b 958 56 1206 643 1031 157 "},"x":{"ha":842,"x_min":0,"x_max":0,"o":"m 22 6 b 235 224 64 38 144 121 b 1 471 113 318 8 418 b 394 811 36 617 283 818 b 501 563 406 756 443 661 b 610 724 543 621 578 675 b 686 882 628 756 693 849 b 732 888 699 886 717 888 b 940 775 821 888 950 843 b 643 381 928 706 797 544 b 788 263 685 336 732 297 b 851 244 806 254 825 242 b 603 15 849 144 682 6 b 382 122 543 31 464 69 b 114 -87 274 24 175 -54 b 22 6 79 -93 11 -56 "},"y":{"ha":811,"x_min":0,"x_max":0,"o":"m 281 200 b 28 563 172 238 47 431 b 354 803 43 661 297 828 b 436 453 350 704 378 513 b 543 857 492 592 532 733 b 631 881 554 874 586 881 b 931 772 750 881 946 826 b 456 -44 856 474 599 83 b 368 -69 432 -61 401 -69 b 153 26 267 -69 143 -4 b 275 190 204 96 218 111 "},"z":{"ha":726,"x_min":0,"x_max":0,"o":"m 790 885 b 817 757 808 872 817 818 b 810 656 817 724 814 689 b 774 501 804 606 797 550 b 260 182 621 411 396 294 b 689 243 397 190 565 217 b 724 131 711 239 731 181 b 714 93 722 118 718 104 b 40 -62 607 15 200 -62 b -12 -57 17 -62 -1 -60 b -33 38 -24 -40 -33 -1 b -26 92 -33 56 -32 75 b 369 474 6 183 190 339 b 44 381 281 457 135 406 b 15 522 24 399 15 457 b 21 619 15 556 18 589 b 47 731 26 668 35 706 b 790 885 178 796 590 892 "},"{":{"ha":631,"x_min":0,"x_max":0,"o":"m 75 193 b 51 274 61 196 47 254 b 161 374 132 306 157 336 b 138 561 168 428 129 483 b 658 931 168 814 443 890 b 668 893 665 925 668 908 b 663 854 668 876 665 858 b 543 717 557 813 549 764 b 556 525 535 643 564 594 b 393 336 544 435 490 375 b 483 229 463 338 483 289 b 481 193 483 217 482 206 b 474 100 478 167 474 132 b 578 -6 474 35 493 -24 b 585 -60 589 -10 593 -44 b 343 -147 517 -111 428 -147 b 200 -65 268 -147 229 -112 b 75 193 144 33 239 221 "},"|":{"ha":339,"x_min":0,"x_max":0,"o":"m 311 -29 b 151 -62 293 -50 178 -76 b 143 281 146 6 143 135 b 163 960 143 531 151 828 b 286 997 171 982 247 997 b 326 992 304 997 317 994 b 300 268 313 818 300 510 b 311 -29 300 143 304 33 "},"}":{"ha":719,"x_min":0,"x_max":0,"o":"m 682 588 b 718 515 701 583 731 539 b 575 390 661 489 583 465 b 581 244 569 346 588 303 b 221 -78 561 75 421 -32 b 139 -89 196 -83 168 -86 b 139 -19 129 -81 132 -31 b 260 122 218 -1 254 58 b 250 297 268 181 243 235 b 340 429 256 346 281 393 b 289 422 319 424 304 422 b 201 565 215 422 193 494 b 219 700 206 604 217 644 b 167 788 224 753 211 788 b 119 779 154 788 138 785 b 111 851 111 781 101 831 b 460 969 211 921 336 969 b 643 775 568 969 657 897 b 606 618 635 713 606 657 b 640 582 604 593 613 582 b 682 588 651 582 665 583 "},"¡":{"ha":497,"x_min":0,"x_max":0,"o":"m 46 -79 b 53 1 47 -57 49 -31 b 157 435 69 132 122 332 b 349 501 169 457 292 493 b 382 497 369 504 381 503 b 460 40 381 374 426 140 b 133 -85 429 0 250 -69 b 94 -87 119 -86 107 -87 b 46 -79 75 -87 57 -85 m 118 633 b 329 863 131 725 215 831 b 363 868 340 865 351 868 b 486 735 456 882 497 819 b 279 522 474 647 396 556 b 243 517 267 518 256 518 b 118 633 151 504 106 554 "},"¢":{"ha":722,"x_min":0,"x_max":0,"o":"m 619 393 b 667 293 658 399 683 338 b 506 122 622 221 569 164 l 504 -36 b 321 -99 492 -74 335 -118 l 324 53 l 318 53 b 68 343 146 35 54 181 b 329 753 85 504 190 667 l 326 903 b 521 958 347 936 496 978 l 518 815 b 736 703 631 822 700 774 b 578 457 731 658 643 499 b 493 463 547 468 517 467 b 378 332 439 449 383 393 b 458 257 372 282 396 244 b 619 393 518 269 579 331 "},"£":{"ha":881,"x_min":0,"x_max":0,"o":"m 847 826 b 668 531 839 772 726 557 b 585 567 664 544 624 574 b 529 468 540 557 521 513 l 531 451 b 746 478 601 463 675 471 b 781 368 768 463 785 411 b 769 329 781 354 776 339 b 531 306 704 322 619 317 b 450 110 519 235 497 161 b 642 264 547 122 635 142 b 853 307 671 279 768 306 b 885 153 875 271 890 203 b 717 -32 879 65 817 -25 b 590 -24 681 -33 651 -24 b 43 -103 415 -24 231 -54 b 31 -32 31 -92 29 -61 b 56 44 33 -7 42 22 b 228 165 144 60 218 92 b 214 254 231 199 224 229 b 68 219 164 243 115 232 b 22 321 39 235 18 282 b 39 360 24 339 31 354 b 143 383 68 367 103 376 b 128 458 135 407 128 431 b 129 493 128 469 128 481 b 579 881 151 731 367 861 b 626 882 594 882 610 882 b 847 826 708 882 790 867 "},"¥":{"ha":904,"x_min":0,"x_max":0,"o":"m 217 129 b 156 265 181 146 146 219 l 294 314 b 60 547 204 363 101 436 b 357 813 89 621 224 767 b 488 511 382 688 433 589 b 719 882 596 656 699 825 b 768 890 733 888 751 890 b 986 765 854 890 967 838 b 688 426 949 686 811 544 l 767 443 b 822 307 817 418 836 350 b 640 267 761 294 700 282 b 660 51 640 168 650 81 b 382 -43 625 11 471 -33 b 321 -36 351 -44 329 -44 b 319 18 319 -19 319 -1 b 326 169 319 63 322 115 b 217 129 289 157 253 143 "},"§":{"ha":786,"x_min":0,"x_max":0,"o":"m 104 238 b 171 381 106 290 132 336 b 50 565 104 397 39 469 b 558 894 78 790 349 896 b 772 831 651 894 731 872 b 775 794 776 821 776 808 b 696 563 774 719 735 599 b 596 589 669 583 633 589 b 413 543 519 589 415 578 b 439 528 413 532 418 528 b 576 539 472 529 522 539 b 806 363 675 539 806 506 b 731 214 806 306 775 256 b 763 75 757 175 772 126 b 281 -217 722 -139 471 -217 b 63 -97 211 -217 74 -190 b 210 101 53 -18 139 68 b 104 238 151 124 103 167 m 329 81 b 243 92 303 81 272 83 b 357 32 235 46 293 32 b 490 82 376 32 489 39 b 329 81 492 111 415 81 m 425 292 b 524 314 444 292 522 286 b 442 343 525 340 479 343 l 404 343 b 349 318 392 343 349 339 b 425 292 349 296 385 292 "},"¤":{"ha":872,"x_min":0,"x_max":0,"o":"m 104 363 b 181 594 107 444 135 526 b 124 719 161 626 142 668 b 242 815 161 768 201 796 b 332 731 272 779 303 753 b 518 781 388 761 451 781 b 611 772 551 781 582 779 b 815 965 668 829 765 931 b 889 889 856 967 881 932 b 753 683 849 836 804 771 b 810 472 793 631 815 556 b 756 285 806 407 788 343 b 882 172 793 229 843 200 b 779 67 857 132 831 96 b 614 126 736 71 671 93 b 392 54 543 82 469 61 b 249 79 336 51 289 60 b 99 -76 201 36 144 -24 b 4 -26 65 -68 31 -54 b 138 189 54 68 101 140 b 104 363 111 239 100 297 m 399 360 b 451 251 393 294 415 246 b 518 379 489 257 514 314 b 465 486 521 444 503 493 b 399 360 428 481 403 425 "},"'":{"ha":419,"x_min":0,"x_max":0,"o":"m 139 844 b 425 943 181 885 336 933 b 481 942 450 947 469 946 b 381 532 418 760 394 646 b 199 464 324 492 229 457 b 138 796 168 508 138 667 b 139 844 138 814 138 829 "},"¶":{"ha":903,"x_min":0,"x_max":0,"o":"m 919 899 b 861 538 892 772 875 653 b 832 56 843 360 836 190 b 721 26 815 33 743 13 b 753 528 724 158 731 344 b 786 768 763 608 774 690 b 736 756 757 761 749 757 b 693 478 717 657 703 565 b 669 13 671 296 669 128 b 443 -57 643 -11 511 -51 b 406 -53 425 -57 413 -58 b 381 146 393 -32 379 86 b 281 119 346 131 311 124 b 69 326 139 106 56 210 b 890 897 113 625 556 876 b 919 899 901 899 911 899 "},"‰":{"ha":1842,"x_min":0,"x_max":0,"o":"m 483 -86 b 371 -46 438 -103 365 -74 b 511 308 374 -7 435 147 b 210 139 433 211 325 139 b 33 346 106 139 33 222 b 36 389 33 360 33 374 b 453 796 64 583 247 796 b 622 563 567 796 638 692 b 614 517 619 546 618 531 l 626 538 b 836 871 693 657 799 829 b 899 890 854 883 874 890 b 1118 781 989 893 1106 839 b 876 515 1047 722 963 625 b 1111 608 944 571 1026 608 b 1278 476 1194 608 1256 557 b 1585 644 1356 574 1468 644 b 1758 428 1694 644 1768 557 b 1757 410 1758 421 1757 417 b 1339 -10 1733 213 1546 -10 b 1172 125 1254 -10 1193 43 b 864 -46 1093 26 981 -46 b 692 175 753 -46 682 44 b 722 306 693 218 706 261 b 483 -86 618 153 526 3 m 1417 276 b 1451 193 1413 250 1410 193 b 1507 261 1483 193 1504 231 b 1468 339 1511 288 1506 339 b 1417 276 1436 339 1419 306 m 281 429 b 317 344 279 401 275 344 b 374 414 349 344 369 382 b 332 490 376 439 369 490 b 281 429 301 490 285 458 m 942 242 b 976 157 939 214 935 157 b 1033 225 1008 157 1031 194 b 993 303 1036 251 1031 303 b 942 242 961 303 944 269 "},"¿":{"ha":860,"x_min":0,"x_max":0,"o":"m 621 482 b 422 325 575 472 428 372 b 449 300 421 314 426 300 b 735 463 514 300 656 386 b 851 176 794 443 875 225 b 269 -61 706 22 449 -61 b 38 147 139 -61 26 15 b 335 486 57 301 200 415 b 339 546 340 501 340 521 b 610 629 371 569 581 644 b 621 482 621 610 624 514 m 658 849 b 450 631 644 763 558 663 b 396 622 429 625 413 622 b 304 753 322 622 293 681 b 504 951 318 835 390 921 l 538 958 b 658 849 629 972 669 922 "},"`":{"ha":556,"x_min":0,"x_max":0,"o":"m 133 899 b 293 1163 110 931 221 1131 b 590 1006 422 1131 540 1050 b 513 871 593 975 543 893 b 189 900 432 889 313 900 b 133 899 169 900 153 899 "},"´":{"ha":585,"x_min":0,"x_max":0,"o":"m 488 1172 b 635 981 538 1193 658 1032 b 293 803 536 931 411 893 b 221 906 250 817 211 883 b 488 1172 282 997 406 1118 "},"ˆ":{"ha":624,"x_min":0,"x_max":0,"o":"m 511 1176 b 764 988 585 1088 685 1026 b 524 864 719 946 596 878 b 426 918 492 871 449 894 b 340 799 396 868 363 828 b 289 783 325 792 308 786 b 189 775 257 778 221 775 b 114 782 158 775 132 778 b 335 1092 156 840 275 999 b 511 1176 371 1118 443 1156 "},"˜":{"ha":624,"x_min":0,"x_max":0,"o":"m 331 1124 b 543 1079 406 1128 475 1072 b 735 1197 649 1092 701 1158 b 785 1081 764 1181 790 1131 b 565 888 776 1013 658 897 b 436 889 532 885 483 889 b 399 888 424 889 411 889 b 236 785 343 883 278 832 b 122 988 174 799 104 931 b 331 1124 156 1038 242 1118 "},"¨":{"ha":681,"x_min":0,"x_max":0,"o":"m 146 918 b 375 1118 158 1019 269 1118 b 471 1035 432 1118 464 1083 b 689 1193 504 1119 599 1193 b 785 1068 761 1193 793 1139 b 557 882 772 963 660 882 b 461 953 503 882 469 910 b 243 807 429 868 331 807 b 146 918 172 807 139 853 "},"˚":{"ha":624,"x_min":0,"x_max":0,"o":"m 665 1033 b 365 758 649 894 506 758 b 224 929 278 758 213 822 b 528 1203 239 1069 385 1203 b 665 1033 621 1203 678 1135 m 406 950 b 432 896 403 928 408 896 b 482 947 458 896 479 919 b 456 1000 488 988 471 1000 b 406 950 429 1000 408 979 "},"¸":{"ha":410,"x_min":0,"x_max":0,"o":"m 121 -143 b 74 -153 106 -143 88 -144 b 35 57 50 -125 31 -19 l 217 103 l 235 -7 b 393 -57 306 -3 364 -26 b 411 -132 410 -78 418 -104 b 97 -367 394 -249 222 -350 b 47 -369 79 -369 63 -369 b -1 -367 31 -369 15 -369 b -12 -267 -15 -350 -18 -303 b 0 -229 -10 -251 -6 -237 b 72 -237 14 -233 43 -242 b 144 -208 97 -233 126 -225 b 164 -174 157 -196 164 -183 b 121 -143 164 -157 147 -146 "},"ˇ":{"ha":1042,"x_min":0,"x_max":0,"o":"m 367 771 b 114 960 293 860 193 921 b 354 1083 157 1001 281 1069 b 451 1029 386 1076 429 1053 b 538 1149 481 1081 515 1119 b 589 1164 553 1156 568 1161 b 689 1172 619 1169 656 1172 b 764 1165 718 1172 744 1169 b 543 856 722 1107 603 949 b 367 771 506 831 435 793 "},"Æ":{"ha":1256,"x_min":0,"x_max":0,"o":"m 631 -44 b 565 -6 607 -47 569 -35 b 564 1 564 -3 564 0 l 563 1 b 525 171 557 49 542 114 b 278 88 463 160 346 117 b 246 -47 260 33 247 -17 b 158 -58 231 -56 199 -58 b -56 -11 72 -58 -43 -42 b 226 714 15 286 172 618 b 531 853 268 769 431 839 b 597 856 554 856 581 858 b 665 736 618 822 642 782 b 1324 900 819 797 1131 893 b 1357 794 1347 894 1357 851 b 1354 725 1357 772 1356 749 b 1297 543 1344 651 1322 575 b 903 474 1199 532 1069 517 b 894 404 900 456 899 431 b 1176 463 975 431 1161 471 b 1194 354 1200 433 1203 389 b 1178 310 1193 338 1188 319 b 890 256 1093 304 968 281 b 893 185 890 225 890 200 b 1244 247 985 210 1143 242 b 1269 174 1263 242 1269 208 b 1246 69 1269 132 1260 85 b 631 -44 1058 50 896 14 m 349 276 b 481 318 393 293 443 310 b 425 433 461 368 443 406 b 349 276 406 401 376 344 "},"Ø":{"ha":744,"x_min":0,"x_max":0,"o":"m 818 456 b 346 -50 794 239 592 -21 b 310 -53 333 -51 321 -53 b 243 -204 281 -110 258 -162 b 128 -169 201 -221 125 -194 b 156 -15 126 -143 136 -86 b -15 301 49 43 -15 165 b -12 347 -15 317 -14 331 b 463 847 13 581 228 818 b 531 849 485 850 507 850 b 615 1007 563 919 593 978 b 675 1028 631 1019 651 1026 b 904 929 763 1033 885 983 b 744 729 856 875 800 806 b 819 501 793 668 819 588 b 818 456 819 486 818 471 m 518 356 b 443 496 524 404 511 504 b 347 374 386 492 354 431 b 435 226 342 304 368 218 b 518 356 492 232 514 314 "},"Œ":{"ha":1260,"x_min":0,"x_max":0,"o":"m 635 -44 b 569 -6 613 -47 575 -35 l 563 39 b 346 -50 497 -7 424 -40 b 306 -53 332 -51 318 -53 b -15 300 110 -53 -15 108 b -12 347 -15 315 -14 331 b 463 847 13 581 228 818 b 500 850 475 849 488 850 b 722 756 590 850 667 814 b 1329 900 888 815 1156 893 b 1363 794 1353 894 1363 851 b 1358 725 1363 772 1361 749 b 1303 543 1350 651 1328 575 b 907 474 1204 532 1075 517 b 900 404 906 456 904 431 b 1181 463 981 431 1167 471 b 1200 354 1206 433 1207 389 b 1182 310 1199 338 1193 319 b 894 256 1099 304 974 281 b 897 185 894 225 894 200 b 1250 247 990 210 1147 242 b 1275 174 1268 242 1275 208 b 1251 69 1275 132 1265 85 b 635 -44 1064 50 901 14 m 518 356 b 443 496 524 404 511 504 b 347 374 386 492 354 431 b 435 226 342 304 368 218 b 518 356 492 232 514 314 "},"æ":{"ha":1256,"x_min":0,"x_max":0,"o":"m 585 -57 b 564 1 576 -54 568 -32 l 563 1 b 525 171 557 49 542 114 b 278 88 463 160 346 117 b 246 -47 260 33 247 -17 b 158 -58 231 -56 199 -58 b -56 -11 72 -58 -43 -42 b 226 714 15 286 172 618 b 531 853 268 769 431 839 b 597 856 554 856 581 858 b 665 736 618 822 642 782 b 1324 900 819 797 1131 893 b 1357 794 1347 894 1357 851 b 1354 725 1357 772 1356 749 b 1297 543 1344 651 1322 575 b 903 474 1199 532 1069 517 b 894 404 900 456 899 431 b 1176 463 975 431 1161 471 b 1194 354 1200 433 1203 389 b 1178 310 1193 338 1188 319 b 890 256 1093 304 968 281 b 893 185 890 225 890 200 b 1229 271 999 203 1106 225 b 1253 163 1251 264 1257 207 b 1232 106 1250 136 1242 114 b 585 -57 1031 17 821 -32 m 349 276 b 481 318 393 293 443 310 b 425 433 461 368 443 406 b 349 276 406 401 376 344 "},"ø":{"ha":744,"x_min":0,"x_max":0,"o":"m 817 456 b 339 -47 790 239 585 -19 b 311 -50 331 -47 319 -49 b 243 -204 281 -108 258 -162 b 128 -169 201 -221 125 -194 b 154 -17 126 -143 136 -87 b -15 293 47 39 -15 157 b -11 346 -15 310 -14 329 b 468 844 18 610 231 818 b 508 847 481 846 494 847 b 529 846 515 847 522 847 b 615 1007 563 918 593 978 b 675 1028 631 1019 651 1026 b 904 929 763 1033 885 983 b 746 731 856 875 800 807 b 818 503 793 668 818 588 b 817 456 818 488 818 472 m 518 326 b 443 467 522 375 513 474 b 346 343 386 460 354 399 b 431 197 339 272 364 189 b 518 326 489 204 513 283 "},"œ":{"ha":1272,"x_min":0,"x_max":0,"o":"m 603 -57 b 574 53 589 -53 581 -10 b 339 -47 504 0 424 -37 b 296 -50 325 -49 310 -50 b -15 293 104 -50 -15 106 b -11 346 -15 310 -14 329 b 468 844 18 610 231 818 b 508 847 481 846 494 847 b 726 754 597 847 672 811 b 1342 900 892 814 1167 893 b 1375 794 1365 894 1375 851 b 1371 725 1375 772 1374 749 b 1315 543 1363 651 1340 575 b 919 474 1217 532 1088 517 b 913 404 918 456 917 431 b 1193 463 993 431 1179 471 b 1213 354 1218 433 1219 389 b 1194 310 1211 338 1206 319 b 907 256 1111 304 986 281 b 910 185 907 225 907 200 b 1246 271 1017 203 1124 225 b 1269 163 1268 264 1275 207 b 1250 106 1268 136 1258 114 b 603 -57 1047 17 839 -32 m 518 326 b 443 467 522 375 513 474 b 346 343 386 460 354 399 b 431 197 339 272 364 189 b 518 326 489 204 513 283 "},"ß":{"ha":765,"x_min":0,"x_max":0,"o":"m 539 214 b 428 357 546 281 419 289 b 463 467 431 393 460 432 b 421 518 467 500 453 528 b 369 400 392 508 376 464 b 367 314 368 374 367 343 b 390 68 367 228 376 132 b 92 -74 386 24 175 -62 b 58 -69 74 -75 64 -74 b -6 283 29 -12 -6 140 b 0 372 -6 314 -4 343 b 522 885 31 631 242 885 b 819 618 667 886 843 801 b 683 388 806 497 711 414 b 811 210 682 371 822 317 b 572 18 800 106 675 18 b 408 81 517 17 461 33 b 453 190 397 104 431 176 b 485 181 461 185 474 181 b 539 214 503 181 536 189 "},"™":{"ha":1188,"x_min":0,"x_max":0,"o":"m 936 464 b 953 689 942 529 949 608 b 885 582 931 642 894 589 b 846 571 878 575 854 571 b 789 644 828 590 807 613 b 781 486 783 593 782 539 b 599 443 763 467 635 426 b 588 683 593 504 589 608 l 526 660 b 524 549 524 628 524 590 b 526 426 524 507 524 465 b 326 374 508 392 354 358 b 307 550 315 406 307 479 b 310 617 307 572 308 594 b 210 586 278 607 243 597 b 181 689 190 599 181 643 b 204 803 181 731 189 778 b 656 947 290 844 503 918 b 668 917 661 949 668 925 b 836 933 757 933 790 936 b 881 729 838 871 861 771 b 957 931 901 767 936 858 b 1193 1010 1018 961 1136 1006 b 1226 1006 1208 1010 1219 1010 b 1215 885 1225 965 1221 926 b 1135 532 1194 743 1161 604 b 936 464 1108 504 975 449 "},"÷":{"ha":940,"x_min":0,"x_max":0,"o":"m 893 576 b 904 529 906 568 906 549 b 879 460 900 504 889 474 b 69 250 693 440 218 300 b 56 324 56 253 51 285 b 106 453 61 374 82 436 b 771 568 268 506 568 551 b 893 576 818 572 860 575 m 432 554 b 311 693 357 554 301 614 b 557 894 324 800 439 894 b 681 758 632 894 692 842 b 432 554 668 651 556 554 m 408 -8 b 286 131 333 -8 276 51 b 532 332 299 238 414 332 b 656 196 607 332 667 278 b 408 -8 643 89 531 -8 "},"®":{"ha":911,"x_min":0,"x_max":0,"o":"m 121 533 b 567 1007 154 760 356 978 b 631 1013 589 1011 610 1013 b 906 726 806 1013 906 893 b 901 661 906 706 906 683 b 451 189 868 439 692 222 b 389 183 431 186 408 183 b 118 472 211 183 118 306 b 121 533 118 493 118 513 m 700 504 b 618 408 681 458 650 429 b 494 468 585 417 532 440 b 499 393 493 442 496 413 b 343 333 446 363 388 343 b 431 315 368 321 396 315 b 471 318 443 315 457 315 b 771 640 631 340 750 483 b 774 685 774 656 774 669 b 586 889 774 806 706 889 b 549 886 574 889 563 888 b 364 786 481 876 417 839 b 524 847 413 818 472 840 b 571 851 540 850 556 851 b 736 694 668 851 754 806 b 618 532 726 638 678 575 b 700 504 640 518 667 508 m 253 565 b 250 518 250 549 250 533 b 296 371 250 458 265 407 b 318 631 294 457 306 544 b 342 761 325 675 333 718 b 253 565 294 706 263 636 m 508 636 b 503 557 503 603 499 563 b 563 608 529 564 560 589 b 508 636 563 629 544 643 "},"×":{"ha":885,"x_min":0,"x_max":0,"o":"m 193 -17 b 39 93 133 -28 26 28 b 225 308 69 143 140 222 b 101 419 174 346 129 385 b 403 756 71 479 311 736 b 508 578 419 715 457 647 b 778 800 621 681 725 765 b 889 718 832 811 881 750 b 608 449 810 647 711 554 b 817 288 676 372 750 307 b 683 101 803 240 743 143 b 385 210 603 108 490 153 b 193 -17 315 132 250 56 "},"©":{"ha":911,"x_min":0,"x_max":0,"o":"m 121 533 b 567 1007 154 760 356 978 b 631 1013 589 1011 610 1013 b 906 726 806 1013 906 893 b 901 661 906 706 906 683 b 451 189 868 439 692 222 b 389 183 431 186 408 183 b 118 472 211 183 118 306 b 121 533 118 493 118 513 m 253 565 b 250 518 250 549 250 533 b 432 315 250 400 314 315 b 471 318 444 315 457 315 b 771 640 631 340 750 483 b 774 685 774 656 774 669 b 586 889 774 806 706 889 b 549 886 574 889 563 888 b 253 565 406 865 274 721 m 668 556 b 678 513 679 546 681 529 b 663 463 676 497 669 481 b 465 350 628 419 556 364 b 289 558 338 332 272 443 b 557 854 307 699 424 833 b 603 857 575 856 590 857 b 694 818 661 857 681 835 b 689 768 693 803 692 786 b 651 635 681 715 668 660 b 608 633 639 636 624 636 b 489 535 556 628 499 599 b 540 481 483 503 499 475 b 668 556 579 486 608 503 "},"Á":{"ha":785,"x_min":0,"x_max":0,"o":"m 226 714 b 531 853 268 769 431 839 b 597 856 554 856 581 858 b 860 156 692 710 825 418 b 563 1 840 107 657 11 b 525 171 557 49 542 114 b 278 88 463 160 346 117 b 246 -47 260 33 247 -17 b 158 -58 231 -56 199 -58 b -56 -11 72 -58 -43 -42 b 226 714 15 286 172 618 m 349 276 b 481 318 393 293 443 310 b 425 433 461 368 443 406 b 349 276 406 401 376 344 m 454 1143 b 601 950 504 1164 625 1003 b 258 772 503 900 378 863 b 188 876 217 786 178 854 b 454 1143 249 968 371 1089 "},"Â":{"ha":785,"x_min":0,"x_max":0,"o":"m 226 714 b 531 853 268 769 431 839 b 597 856 554 856 581 858 b 860 156 692 710 825 418 b 563 1 840 107 657 11 b 525 171 557 49 542 114 b 278 88 463 160 346 117 b 246 -47 260 33 247 -17 b 158 -58 231 -56 199 -58 b -56 -11 72 -58 -43 -42 b 226 714 15 286 172 618 m 349 276 b 481 318 393 293 443 310 b 425 433 461 368 443 406 b 349 276 406 401 376 344 m 472 1178 b 725 989 546 1089 646 1028 b 485 865 681 947 557 879 b 388 919 453 872 410 896 b 301 800 357 868 324 829 b 250 785 286 793 269 788 b 150 776 218 779 182 776 b 75 783 119 776 93 779 b 296 1093 117 842 236 1000 b 472 1178 332 1118 404 1156 "},"Ä":{"ha":785,"x_min":0,"x_max":0,"o":"m 226 714 b 531 853 268 769 431 839 b 597 856 554 856 581 858 b 860 156 692 710 825 418 b 563 1 840 107 657 11 b 525 171 557 49 542 114 b 278 88 463 160 346 117 b 246 -47 260 33 247 -17 b 158 -58 231 -56 199 -58 b -56 -11 72 -58 -43 -42 b 226 714 15 286 172 618 m 349 276 b 481 318 393 293 443 310 b 425 433 461 368 443 406 b 349 276 406 401 376 344 m 106 903 b 335 1103 118 1004 231 1103 b 431 1018 393 1103 424 1068 b 649 1178 464 1104 558 1178 b 744 1053 721 1178 754 1122 b 518 867 732 946 619 867 b 421 936 463 867 431 893 b 203 792 389 853 292 792 b 106 903 132 792 99 836 "},"À":{"ha":785,"x_min":0,"x_max":0,"o":"m 226 714 b 531 853 268 769 431 839 b 597 856 554 856 581 858 b 860 156 692 710 825 418 b 563 1 840 107 657 11 b 525 171 557 49 542 114 b 278 88 463 160 346 117 b 246 -47 260 33 247 -17 b 158 -58 231 -56 199 -58 b -56 -11 72 -58 -43 -42 b 226 714 15 286 172 618 m 349 276 b 481 318 393 293 443 310 b 425 433 461 368 443 406 b 349 276 406 401 376 344 m 157 881 b 317 1144 133 914 244 1113 b 614 989 446 1113 564 1032 b 536 854 617 957 568 875 b 213 882 456 871 336 882 b 157 881 193 882 176 881 "},"Å":{"ha":785,"x_min":0,"x_max":0,"o":"m 636 1054 b 517 850 628 978 581 903 b 531 853 521 850 526 851 b 597 856 554 856 581 858 b 860 156 692 710 825 418 b 563 1 840 107 657 11 b 525 171 557 49 542 114 b 278 88 463 160 346 117 b 246 -47 260 33 247 -17 b 158 -58 231 -56 199 -58 b -56 -11 72 -58 -43 -42 b 226 714 15 286 172 618 b 317 781 242 735 275 758 b 194 949 239 789 183 850 b 499 1222 210 1090 356 1222 b 636 1054 593 1222 649 1156 m 349 276 b 481 318 393 293 443 310 b 425 433 461 368 443 406 b 349 276 406 401 376 344 m 376 969 b 404 917 374 947 381 917 b 454 968 431 917 450 940 b 426 1019 458 1007 443 1019 b 376 969 400 1019 381 999 "},"Ã":{"ha":785,"x_min":0,"x_max":0,"o":"m 226 714 b 531 853 268 769 431 839 b 597 856 554 856 581 858 b 860 156 692 710 825 418 b 563 1 840 107 657 11 b 525 171 557 49 542 114 b 278 88 463 160 346 117 b 246 -47 260 33 247 -17 b 158 -58 231 -56 199 -58 b -56 -11 72 -58 -43 -42 b 226 714 15 286 172 618 m 349 276 b 481 318 393 293 443 310 b 425 433 461 368 443 406 b 349 276 406 401 376 344 m 281 1115 b 493 1069 356 1118 425 1064 b 685 1189 599 1082 651 1150 b 735 1071 714 1172 740 1121 b 515 879 726 1004 608 889 b 386 881 482 876 433 881 b 349 879 374 881 361 881 b 186 776 293 875 228 824 b 72 979 124 790 54 921 b 281 1115 106 1029 192 1108 "},"Ç":{"ha":731,"x_min":0,"x_max":0,"o":"m 436 -164 b 389 -174 419 -164 403 -167 b 353 -51 372 -157 358 -106 l 326 -54 b 290 -56 314 -56 301 -56 b -12 247 118 -56 -12 49 b -10 294 -12 263 -11 279 b 599 858 15 572 333 858 b 653 856 617 858 635 857 b 743 657 719 844 743 746 b 740 603 743 639 743 619 b 715 518 735 565 726 533 b 664 528 701 525 682 528 b 344 274 546 528 361 411 b 464 154 338 210 375 154 b 660 224 531 154 592 178 b 718 128 696 226 732 156 b 543 7 669 81 610 40 l 550 -28 b 707 -78 621 -24 679 -47 b 726 -154 725 -99 732 -125 b 413 -387 710 -269 538 -371 b 363 -392 393 -390 378 -392 b 314 -387 344 -392 331 -390 b 303 -287 300 -371 297 -324 b 315 -250 306 -272 310 -258 b 388 -258 329 -256 357 -262 b 460 -231 413 -256 442 -246 b 479 -194 472 -218 479 -206 b 436 -164 479 -179 463 -168 "},"É":{"ha":718,"x_min":0,"x_max":0,"o":"m 93 -44 b 29 -6 71 -47 33 -35 b 10 321 17 64 10 193 b 24 625 10 436 15 551 b 39 693 28 657 32 681 b 788 900 74 729 535 890 b 821 794 811 894 821 851 b 818 725 821 772 819 749 b 761 543 808 651 786 575 b 367 474 663 532 533 517 b 358 404 364 456 363 431 b 640 463 439 431 625 471 b 658 354 664 433 667 389 b 642 310 657 338 651 319 b 354 256 557 304 432 281 b 356 185 354 225 354 200 b 708 247 449 210 606 242 b 733 174 726 242 733 208 b 710 69 733 132 724 85 b 93 -44 522 50 360 14 m 494 1178 b 643 985 544 1199 667 1038 b 300 807 543 935 418 897 b 229 911 257 821 218 889 b 494 1178 290 1003 413 1124 "},"Ê":{"ha":718,"x_min":0,"x_max":0,"o":"m 93 -44 b 29 -6 71 -47 33 -35 b 10 321 17 64 10 193 b 24 625 10 436 15 551 b 39 693 28 657 32 681 b 788 900 74 729 535 890 b 821 794 811 894 821 851 b 818 725 821 772 819 749 b 761 543 808 651 786 575 b 367 474 663 532 533 517 b 358 404 364 456 363 431 b 640 463 439 431 625 471 b 658 354 664 433 667 389 b 642 310 657 338 651 319 b 354 256 557 304 432 281 b 356 185 354 225 354 200 b 708 247 449 210 606 242 b 733 174 726 242 733 208 b 710 69 733 132 724 85 b 93 -44 522 50 360 14 m 490 1197 b 743 1008 564 1108 664 1047 b 503 885 699 968 575 899 b 406 940 469 893 428 917 b 318 819 375 889 342 849 b 268 806 304 813 288 807 b 168 796 236 799 200 796 b 93 804 138 796 111 799 b 314 1113 133 861 254 1019 b 490 1197 350 1139 421 1176 "},"Ë":{"ha":718,"x_min":0,"x_max":0,"o":"m 93 -44 b 29 -6 71 -47 33 -35 b 10 321 17 64 10 193 b 24 625 10 436 15 551 b 39 693 28 657 32 681 b 788 900 74 729 535 890 b 821 794 811 894 821 851 b 818 725 821 772 819 749 b 761 543 808 651 786 575 b 367 474 663 532 533 517 b 358 404 364 456 363 431 b 640 463 439 431 625 471 b 658 354 664 433 667 389 b 642 310 657 338 651 319 b 354 256 557 304 432 281 b 356 185 354 225 354 200 b 708 247 449 210 606 242 b 733 174 726 242 733 208 b 710 69 733 132 724 85 b 93 -44 522 50 360 14 m 96 929 b 325 1129 108 1031 219 1129 b 421 1044 382 1129 414 1093 b 639 1204 454 1131 549 1204 b 735 1079 711 1204 743 1149 b 507 893 722 972 610 893 b 411 963 453 893 419 919 b 193 818 379 879 281 818 b 96 929 122 818 89 863 "},"È":{"ha":718,"x_min":0,"x_max":0,"o":"m 93 -44 b 29 -6 71 -47 33 -35 b 10 321 17 64 10 193 b 24 625 10 436 15 551 b 39 693 28 657 32 681 b 788 900 74 729 535 890 b 821 794 811 894 821 851 b 818 725 821 772 819 749 b 761 543 808 651 786 575 b 367 474 663 532 533 517 b 358 404 364 456 363 431 b 640 463 439 431 625 471 b 658 354 664 433 667 389 b 642 310 657 338 651 319 b 354 256 557 304 432 281 b 356 185 354 225 354 200 b 708 247 449 210 606 242 b 733 174 726 242 733 208 b 710 69 733 132 724 85 b 93 -44 522 50 360 14 m 156 903 b 315 1167 132 935 243 1133 b 613 1010 444 1133 563 1054 b 535 875 615 979 567 896 b 211 904 456 893 335 904 b 156 903 193 904 175 903 "},"Í":{"ha":432,"x_min":0,"x_max":0,"o":"m 49 624 b 432 765 68 671 303 765 b 489 756 456 765 474 763 b 443 540 474 711 456 629 b 411 43 418 394 410 118 b 143 -51 399 0 231 -51 b 106 -44 128 -51 115 -49 b 43 488 83 31 43 257 b 49 624 43 533 44 579 m 340 1132 b 488 940 390 1154 511 993 b 144 763 389 890 264 853 b 74 867 103 776 64 843 b 340 1132 135 957 257 1079 "},"Î":{"ha":432,"x_min":0,"x_max":0,"o":"m 49 624 b 432 765 68 671 303 765 b 489 756 456 765 474 763 b 443 540 474 711 456 629 b 411 43 418 394 410 118 b 143 -51 399 0 231 -51 b 106 -44 128 -51 115 -49 b 43 488 83 31 43 257 b 49 624 43 533 44 579 m 300 1143 b 553 954 374 1054 474 993 b 313 831 508 913 385 843 b 215 885 281 838 238 861 b 129 765 185 833 151 793 b 78 750 114 757 97 753 b -22 742 46 743 10 742 b -97 749 -53 742 -79 743 b 124 1057 -57 806 64 965 b 300 1143 160 1083 231 1121 "},"Ï":{"ha":432,"x_min":0,"x_max":0,"o":"m 49 624 b 432 765 68 671 303 765 b 489 756 456 765 474 763 b 443 540 474 711 456 629 b 411 43 418 394 410 118 b 143 -51 399 0 231 -51 b 106 -44 128 -51 115 -49 b 43 488 83 31 43 257 b 49 624 43 533 44 579 m -74 856 b 156 1056 -61 956 50 1056 b 251 971 213 1056 243 1019 b 468 1131 283 1056 379 1131 b 565 1006 542 1131 574 1075 b 338 818 553 899 440 818 b 242 889 282 818 250 846 b 22 743 208 806 111 743 b -74 856 -47 743 -82 789 "},"Ì":{"ha":432,"x_min":0,"x_max":0,"o":"m 49 624 b 432 765 68 671 303 765 b 489 756 456 765 474 763 b 443 540 474 711 456 629 b 411 43 418 394 410 118 b 143 -51 399 0 231 -51 b 106 -44 128 -51 115 -49 b 43 488 83 31 43 257 b 49 624 43 533 44 579 m 35 864 b 193 1128 11 896 122 1094 b 492 971 324 1094 442 1015 b 414 836 493 940 444 857 b 90 865 333 854 214 865 b 35 864 71 865 54 864 "},"Ñ":{"ha":838,"x_min":0,"x_max":0,"o":"m 332 1106 b 544 1061 407 1110 478 1056 b 738 1181 651 1074 704 1142 b 788 1063 767 1164 793 1113 b 568 869 779 994 661 881 b 439 871 535 868 486 871 b 401 869 426 871 414 871 b 239 768 346 867 281 815 b 125 969 176 781 106 913 b 332 1106 158 1019 243 1100 m 564 -4 b 363 339 533 13 410 218 l 363 274 b 375 39 363 182 365 101 b 57 -49 354 1 133 -67 b 13 433 39 11 13 206 b 19 639 13 500 15 568 b 338 756 47 685 235 746 b 388 753 358 757 378 756 b 554 331 406 689 479 453 b 528 807 553 546 531 757 b 843 893 606 858 739 893 b 929 868 886 893 918 885 b 911 629 931 808 921 707 b 839 111 886 421 857 186 b 564 -4 804 57 597 -15 "},"Ó":{"ha":744,"x_min":0,"x_max":0,"o":"m 818 456 b 346 -50 794 239 592 -21 b 306 -53 332 -51 318 -53 b -15 300 110 -53 -15 108 b -12 347 -15 315 -14 331 b 463 847 13 581 228 818 b 501 850 475 849 489 850 b 819 501 693 850 819 689 b 818 456 819 486 818 471 m 518 356 b 443 496 524 404 511 504 b 347 374 386 492 354 431 b 435 226 342 304 368 218 b 518 356 492 232 514 314 m 501 1196 b 649 1004 551 1218 672 1056 b 306 826 550 954 425 917 b 235 931 264 840 225 907 b 501 1196 296 1021 418 1143 "},"Ô":{"ha":744,"x_min":0,"x_max":0,"o":"m 818 456 b 346 -50 794 239 592 -21 b 306 -53 332 -51 318 -53 b -15 300 110 -53 -15 108 b -12 347 -15 315 -14 331 b 463 847 13 581 228 818 b 501 850 475 849 489 850 b 819 501 693 850 819 689 b 818 456 819 486 818 471 m 518 356 b 443 496 524 404 511 504 b 347 374 386 492 354 431 b 435 226 342 304 368 218 b 518 356 492 232 514 314 m 453 1183 b 706 994 526 1094 626 1033 b 465 871 661 954 538 885 b 368 926 432 879 390 903 b 281 806 338 875 304 835 b 231 792 267 799 250 793 b 131 782 199 785 163 782 b 56 790 100 782 74 785 b 276 1099 96 847 217 1006 b 453 1183 313 1125 383 1163 "},"Ö":{"ha":744,"x_min":0,"x_max":0,"o":"m 818 456 b 346 -50 794 239 592 -21 b 306 -53 332 -51 318 -53 b -15 300 110 -53 -15 108 b -12 347 -15 315 -14 331 b 463 847 13 581 228 818 b 501 850 475 849 489 850 b 819 501 693 850 819 689 b 818 456 819 486 818 471 m 518 356 b 443 496 524 404 511 504 b 347 374 386 492 354 431 b 435 226 342 304 368 218 b 518 356 492 232 514 314 m 106 914 b 335 1114 118 1015 231 1114 b 431 1031 393 1114 424 1079 b 649 1189 464 1115 558 1189 b 744 1064 721 1189 754 1133 b 518 878 732 957 619 878 b 421 947 463 878 431 906 b 203 803 389 864 292 803 b 106 914 132 803 99 847 "},"Ò":{"ha":744,"x_min":0,"x_max":0,"o":"m 818 456 b 346 -50 794 239 592 -21 b 306 -53 332 -51 318 -53 b -15 300 110 -53 -15 108 b -12 347 -15 315 -14 331 b 463 847 13 581 228 818 b 501 850 475 849 489 850 b 819 501 693 850 819 689 b 818 456 819 486 818 471 m 518 356 b 443 496 524 404 511 504 b 347 374 386 492 354 431 b 435 226 342 304 368 218 b 518 356 492 232 514 314 m 181 897 b 339 1161 156 931 268 1129 b 636 1006 468 1129 586 1049 b 558 869 639 974 590 892 b 235 899 479 888 358 899 b 181 897 217 899 199 897 "},"Õ":{"ha":744,"x_min":0,"x_max":0,"o":"m 818 456 b 346 -50 794 239 592 -21 b 306 -53 332 -51 318 -53 b -15 300 110 -53 -15 108 b -12 347 -15 315 -14 331 b 463 847 13 581 228 818 b 501 850 475 849 489 850 b 819 501 693 850 819 689 b 818 456 819 486 818 471 m 518 356 b 443 496 524 404 511 504 b 347 374 386 492 354 431 b 435 226 342 304 368 218 b 518 356 492 232 514 314 m 271 1115 b 483 1069 346 1118 417 1064 b 676 1189 590 1082 643 1150 b 726 1071 706 1172 731 1121 b 506 879 718 1004 600 889 b 378 881 474 876 425 881 b 340 879 365 881 353 881 b 178 776 285 875 218 824 b 64 979 115 790 44 921 b 271 1115 97 1029 182 1108 "},"Š":{"ha":733,"x_min":0,"x_max":0,"o":"m 263 -69 b 71 44 196 -69 71 -50 b 194 239 71 122 126 200 b 0 463 82 257 -15 329 b 278 786 17 599 129 715 b 44 967 207 869 118 928 b 281 1069 90 1004 206 1061 b 372 1015 314 1063 354 1039 b 460 1124 403 1060 436 1097 b 568 1142 489 1136 529 1142 b 679 1128 608 1142 649 1136 b 456 850 638 1075 515 931 l 446 843 b 608 863 500 856 556 863 b 771 822 668 863 724 851 b 803 725 793 810 803 768 b 800 688 803 713 801 700 b 726 504 792 610 757 524 b 621 519 704 515 665 519 b 413 483 551 519 468 506 b 363 446 399 479 365 468 b 403 432 361 432 383 432 b 543 436 438 432 490 436 b 592 435 560 436 575 436 b 786 313 694 431 781 394 b 786 276 788 300 788 289 b 263 -69 757 78 457 -69 m 286 231 b 235 232 268 231 251 231 b 343 165 233 171 304 165 b 499 222 386 164 493 183 b 463 239 500 233 488 239 b 286 231 426 239 365 231 "},"Ú":{"ha":789,"x_min":0,"x_max":0,"o":"m 842 881 b 867 640 857 801 867 719 b 860 526 867 601 864 564 b 356 -53 828 239 676 -12 b 294 -57 336 -56 315 -57 b -1 349 99 -57 -1 81 b 6 481 -1 390 1 433 b 26 608 11 522 18 563 b 415 753 64 654 281 738 b 381 528 401 688 389 608 b 368 319 372 456 368 382 b 410 158 368 219 381 149 b 474 349 440 168 463 243 b 481 508 479 397 481 451 b 465 778 481 597 476 692 b 799 879 538 824 701 869 b 842 881 814 881 831 882 m 478 1126 b 625 933 528 1147 649 986 b 282 756 526 883 401 846 b 211 860 240 769 201 838 b 478 1126 272 951 394 1072 "},"Û":{"ha":789,"x_min":0,"x_max":0,"o":"m 842 881 b 867 640 857 801 867 719 b 860 526 867 601 864 564 b 356 -53 828 239 676 -12 b 294 -57 336 -56 315 -57 b -1 349 99 -57 -1 81 b 6 481 -1 390 1 433 b 26 608 11 522 18 563 b 415 753 64 654 281 738 b 381 528 401 688 389 608 b 368 319 372 456 368 382 b 410 158 368 219 381 149 b 474 349 440 168 463 243 b 481 508 479 397 481 451 b 465 778 481 597 476 692 b 799 879 538 824 701 869 b 842 881 814 881 831 882 m 492 1156 b 743 967 565 1067 665 1006 b 504 843 700 925 576 856 b 406 897 471 850 429 874 b 319 778 376 846 343 806 b 268 763 306 769 289 765 b 168 754 238 756 201 754 b 93 761 139 754 113 756 b 315 1069 135 818 256 978 b 492 1156 351 1096 422 1133 "},"Ü":{"ha":789,"x_min":0,"x_max":0,"o":"m 842 881 b 867 640 857 801 867 719 b 860 526 867 601 864 564 b 356 -53 828 239 676 -12 b 294 -57 336 -56 315 -57 b -1 349 99 -57 -1 81 b 6 481 -1 390 1 433 b 26 608 11 522 18 563 b 415 753 64 654 281 738 b 381 528 401 688 389 608 b 368 319 372 456 368 382 b 410 158 368 219 381 149 b 474 349 440 168 463 243 b 481 508 479 397 481 451 b 465 778 481 597 476 692 b 799 879 538 824 701 869 b 842 881 814 881 831 882 m 103 882 b 331 1082 115 983 226 1082 b 428 999 389 1082 419 1047 b 644 1157 460 1083 556 1157 b 742 1032 718 1157 750 1103 b 514 846 729 926 617 846 b 418 917 458 846 426 874 b 199 771 385 832 288 771 b 103 882 129 771 94 817 "},"Ù":{"ha":789,"x_min":0,"x_max":0,"o":"m 842 881 b 867 640 857 801 867 719 b 860 526 867 601 864 564 b 356 -53 828 239 676 -12 b 294 -57 336 -56 315 -57 b -1 349 99 -57 -1 81 b 6 481 -1 390 1 433 b 26 608 11 522 18 563 b 415 753 64 654 281 738 b 381 528 401 688 389 608 b 368 319 372 456 368 382 b 410 158 368 219 381 149 b 474 349 440 168 463 243 b 481 508 479 397 481 451 b 465 778 481 597 476 692 b 799 879 538 824 701 869 b 842 881 814 881 831 882 m 165 858 b 324 1122 142 892 253 1090 b 621 967 454 1090 571 1010 b 543 831 624 935 575 853 b 219 860 464 849 343 860 b 165 858 201 860 183 858 "},"Ý":{"ha":811,"x_min":0,"x_max":0,"o":"m 524 1167 b 671 974 574 1188 694 1026 b 340 806 575 925 456 889 b 354 803 344 806 350 804 b 436 453 350 704 378 513 b 543 857 492 592 532 733 b 631 881 554 874 586 881 b 931 772 750 881 946 826 b 456 -44 856 474 599 83 b 368 -69 432 -61 401 -69 b 153 26 267 -69 143 -4 b 275 190 204 96 218 111 l 281 200 b 28 563 172 238 47 431 b 317 801 40 646 226 779 b 257 900 279 822 249 881 b 524 1167 318 992 442 1113 "},"Ÿ":{"ha":811,"x_min":0,"x_max":0,"o":"m 97 907 b 326 1107 110 1008 221 1107 b 422 1024 383 1107 415 1072 b 640 1182 456 1108 550 1182 b 736 1057 713 1182 744 1128 b 508 871 724 951 611 871 b 413 942 454 871 421 899 b 193 796 381 857 282 796 b 97 907 124 796 90 842 m 281 200 b 28 563 172 238 47 431 b 354 803 43 661 297 828 b 436 453 350 704 378 513 b 543 857 492 592 532 733 b 631 881 554 874 586 881 b 931 772 750 881 946 826 b 456 -44 856 474 599 83 b 368 -69 432 -61 401 -69 b 153 26 267 -69 143 -4 b 275 190 204 96 218 111 "},"Ž":{"ha":726,"x_min":0,"x_max":0,"o":"m 260 182 b 689 243 342 201 558 232 b 724 131 711 239 731 181 b 711 64 722 118 717 74 b 40 -62 579 56 188 -17 b -12 -57 18 -69 -7 -65 b -33 33 -25 -42 -33 -4 b -26 92 -33 54 -32 74 b 369 474 6 183 190 339 b 44 381 281 457 135 406 b 15 522 24 399 15 457 b 21 619 15 556 18 589 b 47 731 26 668 35 706 b 292 811 96 756 188 785 b 61 1013 226 903 135 968 b 310 1118 107 1050 238 1108 b 403 1054 343 1106 383 1079 b 499 1167 438 1103 475 1140 b 551 1178 515 1172 531 1178 b 606 1181 568 1179 586 1181 b 725 1164 651 1181 697 1175 b 481 875 681 1110 547 963 b 403 836 461 863 433 849 b 790 885 543 867 693 888 b 817 757 808 872 817 818 b 810 656 817 724 814 689 b 774 501 804 606 797 550 b 260 182 621 411 396 294 "},"á":{"ha":785,"x_min":0,"x_max":0,"o":"m 226 714 b 531 853 268 769 431 839 b 597 856 554 856 581 858 b 860 156 692 710 825 418 b 563 1 840 107 657 11 b 525 171 557 49 542 114 b 278 88 463 160 346 117 b 246 -47 260 33 247 -17 b 158 -58 231 -56 199 -58 b -56 -11 72 -58 -43 -42 b 226 714 15 286 172 618 m 349 276 b 481 318 393 293 443 310 b 425 433 461 368 443 406 b 349 276 406 401 376 344 m 454 1143 b 601 950 504 1164 625 1003 b 258 772 503 900 378 863 b 188 876 217 786 178 854 b 454 1143 249 968 371 1089 "},"â":{"ha":785,"x_min":0,"x_max":0,"o":"m 226 714 b 531 853 268 769 431 839 b 597 856 554 856 581 858 b 860 156 692 710 825 418 b 563 1 840 107 657 11 b 525 171 557 49 542 114 b 278 88 463 160 346 117 b 246 -47 260 33 247 -17 b 158 -58 231 -56 199 -58 b -56 -11 72 -58 -43 -42 b 226 714 15 286 172 618 m 349 276 b 481 318 393 293 443 310 b 425 433 461 368 443 406 b 349 276 406 401 376 344 m 472 1178 b 725 989 546 1089 646 1028 b 485 865 681 947 557 879 b 388 919 453 872 410 896 b 301 800 357 868 324 829 b 250 785 286 793 269 788 b 150 776 218 779 182 776 b 75 783 119 776 93 779 b 296 1093 117 842 236 1000 b 472 1178 332 1118 404 1156 "},"ä":{"ha":785,"x_min":0,"x_max":0,"o":"m 226 714 b 531 853 268 769 431 839 b 597 856 554 856 581 858 b 860 156 692 710 825 418 b 563 1 840 107 657 11 b 525 171 557 49 542 114 b 278 88 463 160 346 117 b 246 -47 260 33 247 -17 b 158 -58 231 -56 199 -58 b -56 -11 72 -58 -43 -42 b 226 714 15 286 172 618 m 349 276 b 481 318 393 293 443 310 b 425 433 461 368 443 406 b 349 276 406 401 376 344 m 106 903 b 335 1103 118 1004 231 1103 b 431 1018 393 1103 424 1068 b 649 1178 464 1104 558 1178 b 744 1053 721 1178 754 1122 b 518 867 732 946 619 867 b 421 936 463 867 431 893 b 203 792 389 853 292 792 b 106 903 132 792 99 836 "},"à":{"ha":785,"x_min":0,"x_max":0,"o":"m 226 714 b 531 853 268 769 431 839 b 597 856 554 856 581 858 b 860 156 692 710 825 418 b 563 1 840 107 657 11 b 525 171 557 49 542 114 b 278 88 463 160 346 117 b 246 -47 260 33 247 -17 b 158 -58 231 -56 199 -58 b -56 -11 72 -58 -43 -42 b 226 714 15 286 172 618 m 349 276 b 481 318 393 293 443 310 b 425 433 461 368 443 406 b 349 276 406 401 376 344 m 157 881 b 317 1144 133 914 244 1113 b 614 989 446 1113 564 1032 b 536 854 617 957 568 875 b 213 882 456 871 336 882 b 157 881 193 882 176 881 "},"å":{"ha":785,"x_min":0,"x_max":0,"o":"m 636 1054 b 517 850 628 978 581 903 b 531 853 521 850 526 851 b 597 856 554 856 581 858 b 860 156 692 710 825 418 b 563 1 840 107 657 11 b 525 171 557 49 542 114 b 278 88 463 160 346 117 b 246 -47 260 33 247 -17 b 158 -58 231 -56 199 -58 b -56 -11 72 -58 -43 -42 b 226 714 15 286 172 618 b 317 781 242 735 275 758 b 194 949 239 789 183 850 b 499 1222 210 1090 356 1222 b 636 1054 593 1222 649 1156 m 349 276 b 481 318 393 293 443 310 b 425 433 461 368 443 406 b 349 276 406 401 376 344 m 376 969 b 404 917 374 947 381 917 b 454 968 431 917 450 940 b 426 1019 458 1007 443 1019 b 376 969 400 1019 381 999 "},"ã":{"ha":785,"x_min":0,"x_max":0,"o":"m 226 714 b 531 853 268 769 431 839 b 597 856 554 856 581 858 b 860 156 692 710 825 418 b 563 1 840 107 657 11 b 525 171 557 49 542 114 b 278 88 463 160 346 117 b 246 -47 260 33 247 -17 b 158 -58 231 -56 199 -58 b -56 -11 72 -58 -43 -42 b 226 714 15 286 172 618 m 349 276 b 481 318 393 293 443 310 b 425 433 461 368 443 406 b 349 276 406 401 376 344 m 281 1115 b 493 1069 356 1118 425 1064 b 685 1189 599 1082 651 1150 b 735 1071 714 1172 740 1121 b 515 879 726 1004 608 889 b 386 881 482 876 433 881 b 349 879 374 881 361 881 b 186 776 293 875 228 824 b 72 979 124 790 54 921 b 281 1115 106 1029 192 1108 "},"ç":{"ha":731,"x_min":0,"x_max":0,"o":"m 436 -164 b 389 -174 419 -164 403 -167 b 353 -51 372 -157 358 -106 l 326 -54 b 290 -56 314 -56 301 -56 b -12 247 118 -56 -12 49 b -10 294 -12 263 -11 279 b 599 858 15 572 333 858 b 653 856 617 858 635 857 b 743 657 719 844 743 746 b 740 603 743 639 743 619 b 715 518 735 565 726 533 b 664 528 701 525 682 528 b 344 274 546 528 361 411 b 464 154 338 210 375 154 b 660 224 531 154 592 178 b 718 128 696 226 732 156 b 543 7 669 81 610 40 l 550 -28 b 707 -78 621 -24 679 -47 b 726 -154 725 -99 732 -125 b 413 -387 710 -269 538 -371 b 363 -392 393 -390 378 -392 b 314 -387 344 -392 331 -390 b 303 -287 300 -371 297 -324 b 315 -250 306 -272 310 -258 b 388 -258 329 -256 357 -262 b 460 -231 413 -256 442 -246 b 479 -194 472 -218 479 -206 b 436 -164 479 -179 463 -168 "},"é":{"ha":718,"x_min":0,"x_max":0,"o":"m 494 1178 b 643 985 544 1199 667 1038 b 300 807 543 935 418 897 b 229 911 257 821 218 889 b 494 1178 290 1003 413 1124 m 49 -57 b 10 317 22 -47 10 132 b 24 625 10 432 15 550 b 39 693 28 657 32 681 b 788 900 74 729 535 890 b 821 794 811 894 821 851 b 818 725 821 772 819 749 b 761 543 808 651 786 575 b 367 474 663 532 533 517 b 358 404 364 456 363 431 b 640 463 439 431 625 471 b 658 354 664 433 667 389 b 642 310 657 338 651 319 b 354 256 557 304 432 281 b 356 185 354 225 354 200 b 693 271 463 203 569 225 b 717 163 715 264 721 207 b 696 106 714 136 706 114 b 49 -57 493 17 285 -32 "},"ê":{"ha":718,"x_min":0,"x_max":0,"o":"m 490 1197 b 743 1008 564 1108 664 1047 b 503 885 699 968 575 899 b 406 940 469 893 428 917 b 318 819 375 889 342 849 b 268 806 304 813 288 807 b 168 796 236 799 200 796 b 93 804 138 796 111 799 b 314 1113 133 861 254 1019 b 490 1197 350 1139 421 1176 m 49 -57 b 10 317 22 -47 10 132 b 24 625 10 432 15 550 b 39 693 28 657 32 681 b 788 900 74 729 535 890 b 821 794 811 894 821 851 b 818 725 821 772 819 749 b 761 543 808 651 786 575 b 367 474 663 532 533 517 b 358 404 364 456 363 431 b 640 463 439 431 625 471 b 658 354 664 433 667 389 b 642 310 657 338 651 319 b 354 256 557 304 432 281 b 356 185 354 225 354 200 b 693 271 463 203 569 225 b 717 163 715 264 721 207 b 696 106 714 136 706 114 b 49 -57 493 17 285 -32 "},"ë":{"ha":718,"x_min":0,"x_max":0,"o":"m 96 929 b 325 1129 108 1031 219 1129 b 421 1044 382 1129 414 1093 b 639 1204 454 1131 549 1204 b 735 1079 711 1204 743 1149 b 507 893 722 972 610 893 b 411 963 453 893 419 919 b 193 818 379 879 281 818 b 96 929 122 818 89 863 m 49 -57 b 10 317 22 -47 10 132 b 24 625 10 432 15 550 b 39 693 28 657 32 681 b 788 900 74 729 535 890 b 821 794 811 894 821 851 b 818 725 821 772 819 749 b 761 543 808 651 786 575 b 367 474 663 532 533 517 b 358 404 364 456 363 431 b 640 463 439 431 625 471 b 658 354 664 433 667 389 b 642 310 657 338 651 319 b 354 256 557 304 432 281 b 356 185 354 225 354 200 b 693 271 463 203 569 225 b 717 163 715 264 721 207 b 696 106 714 136 706 114 b 49 -57 493 17 285 -32 "},"è":{"ha":718,"x_min":0,"x_max":0,"o":"m 156 903 b 315 1167 132 935 243 1133 b 613 1010 444 1133 563 1054 b 535 875 615 979 567 896 b 211 904 456 893 335 904 b 156 903 193 904 175 903 m 49 -57 b 10 317 22 -47 10 132 b 24 625 10 432 15 550 b 39 693 28 657 32 681 b 788 900 74 729 535 890 b 821 794 811 894 821 851 b 818 725 821 772 819 749 b 761 543 808 651 786 575 b 367 474 663 532 533 517 b 358 404 364 456 363 431 b 640 463 439 431 625 471 b 658 354 664 433 667 389 b 642 310 657 338 651 319 b 354 256 557 304 432 281 b 356 185 354 225 354 200 b 693 271 463 203 569 225 b 717 163 715 264 721 207 b 696 106 714 136 706 114 b 49 -57 493 17 285 -32 "},"í":{"ha":432,"x_min":0,"x_max":0,"o":"m 49 624 b 432 765 68 671 303 765 b 489 756 456 765 474 763 b 443 540 474 711 456 629 b 411 43 418 394 410 118 b 143 -51 399 0 231 -51 b 106 -44 128 -51 115 -49 b 43 488 83 31 43 257 b 49 624 43 533 44 579 m 340 1132 b 488 940 390 1154 511 993 b 144 763 389 890 264 853 b 74 867 103 776 64 843 b 340 1132 135 957 257 1079 "},"î":{"ha":432,"x_min":0,"x_max":0,"o":"m 49 624 b 432 765 68 671 303 765 b 489 756 456 765 474 763 b 443 540 474 711 456 629 b 411 43 418 394 410 118 b 143 -51 399 0 231 -51 b 106 -44 128 -51 115 -49 b 43 488 83 31 43 257 b 49 624 43 533 44 579 m 300 1143 b 553 954 374 1054 474 993 b 313 831 508 913 385 843 b 215 885 281 838 238 861 b 129 765 185 833 151 793 b 78 750 114 757 97 753 b -22 742 46 743 10 742 b -97 749 -53 742 -79 743 b 124 1057 -57 806 64 965 b 300 1143 160 1083 231 1121 "},"ï":{"ha":432,"x_min":0,"x_max":0,"o":"m 49 624 b 432 765 68 671 303 765 b 489 756 456 765 474 763 b 443 540 474 711 456 629 b 411 43 418 394 410 118 b 143 -51 399 0 231 -51 b 106 -44 128 -51 115 -49 b 43 488 83 31 43 257 b 49 624 43 533 44 579 m -74 856 b 156 1056 -61 956 50 1056 b 251 971 213 1056 243 1019 b 468 1131 283 1056 379 1131 b 565 1006 542 1131 574 1075 b 338 818 553 899 440 818 b 242 889 282 818 250 846 b 22 743 208 806 111 743 b -74 856 -47 743 -82 789 "},"ì":{"ha":432,"x_min":0,"x_max":0,"o":"m 49 624 b 432 765 68 671 303 765 b 489 756 456 765 474 763 b 443 540 474 711 456 629 b 411 43 418 394 410 118 b 143 -51 399 0 231 -51 b 106 -44 128 -51 115 -49 b 43 488 83 31 43 257 b 49 624 43 533 44 579 m 35 864 b 193 1128 11 896 122 1094 b 492 971 324 1094 442 1015 b 414 836 493 940 444 857 b 90 865 333 854 214 865 b 35 864 71 865 54 864 "},"ñ":{"ha":838,"x_min":0,"x_max":0,"o":"m 564 -4 b 363 339 533 13 410 218 l 363 274 b 375 39 363 182 365 101 b 57 -49 354 1 133 -67 b 13 433 39 11 13 206 b 19 639 13 500 15 568 b 338 756 47 685 235 746 b 388 753 358 757 378 756 b 554 331 406 689 479 453 b 528 807 553 546 531 757 b 843 893 606 858 739 893 b 929 868 886 893 918 885 b 911 629 931 808 921 707 b 839 111 886 421 857 186 b 564 -4 804 57 597 -15 m 308 1094 b 521 1050 383 1099 454 1043 b 714 1168 628 1063 681 1131 b 764 1051 743 1153 768 1101 b 543 858 756 983 638 868 b 415 860 511 856 463 860 b 378 858 403 860 390 860 b 215 756 322 856 256 804 b 101 958 153 769 82 901 b 308 1094 135 1008 219 1089 "},"ó":{"ha":744,"x_min":0,"x_max":0,"o":"m 501 1196 b 649 1004 551 1218 672 1056 b 306 826 550 954 425 917 b 235 931 264 840 225 907 b 501 1196 296 1021 418 1143 m 817 456 b 339 -47 790 239 585 -19 b 296 -50 325 -49 310 -50 b -15 293 104 -50 -15 106 b -11 346 -15 310 -14 329 b 468 844 18 610 231 818 b 508 847 481 846 494 847 b 818 506 696 847 818 689 b 817 456 818 489 818 472 m 518 326 b 443 467 522 375 513 474 b 346 343 386 460 354 399 b 431 197 339 272 364 189 b 518 326 489 204 513 283 "},"ô":{"ha":744,"x_min":0,"x_max":0,"o":"m 453 1183 b 706 994 526 1094 626 1033 b 465 871 661 954 538 885 b 368 926 432 879 390 903 b 281 806 338 875 304 835 b 231 792 267 799 250 793 b 131 782 199 785 163 782 b 56 790 100 782 74 785 b 276 1099 96 847 217 1006 b 453 1183 313 1125 383 1163 m 817 456 b 339 -47 790 239 585 -19 b 296 -50 325 -49 310 -50 b -15 293 104 -50 -15 106 b -11 346 -15 310 -14 329 b 468 844 18 610 231 818 b 508 847 481 846 494 847 b 818 506 696 847 818 689 b 817 456 818 489 818 472 m 518 326 b 443 467 522 375 513 474 b 346 343 386 460 354 399 b 431 197 339 272 364 189 b 518 326 489 204 513 283 "},"ö":{"ha":744,"x_min":0,"x_max":0,"o":"m 106 914 b 335 1114 118 1015 231 1114 b 431 1031 393 1114 424 1079 b 649 1189 464 1115 558 1189 b 744 1064 721 1189 754 1133 b 518 878 732 957 619 878 b 421 947 463 878 431 906 b 203 803 389 864 292 803 b 106 914 132 803 99 847 m 817 456 b 339 -47 790 239 585 -19 b 296 -50 325 -49 310 -50 b -15 293 104 -50 -15 106 b -11 346 -15 310 -14 329 b 468 844 18 610 231 818 b 508 847 481 846 494 847 b 818 506 696 847 818 689 b 817 456 818 489 818 472 m 518 326 b 443 467 522 375 513 474 b 346 343 386 460 354 399 b 431 197 339 272 364 189 b 518 326 489 204 513 283 "},"ò":{"ha":744,"x_min":0,"x_max":0,"o":"m 181 897 b 339 1161 156 931 268 1129 b 636 1006 468 1129 586 1049 b 558 869 639 974 590 892 b 235 899 479 888 358 899 b 181 897 217 899 199 897 m 817 456 b 339 -47 790 239 585 -19 b 296 -50 325 -49 310 -50 b -15 293 104 -50 -15 106 b -11 346 -15 310 -14 329 b 468 844 18 610 231 818 b 508 847 481 846 494 847 b 818 506 696 847 818 689 b 817 456 818 489 818 472 m 518 326 b 443 467 522 375 513 474 b 346 343 386 460 354 399 b 431 197 339 272 364 189 b 518 326 489 204 513 283 "},"õ":{"ha":744,"x_min":0,"x_max":0,"o":"m 271 1115 b 483 1069 346 1118 417 1064 b 676 1189 590 1082 643 1150 b 726 1071 706 1172 731 1121 b 506 879 718 1004 600 889 b 378 881 474 876 425 881 b 340 879 365 881 353 881 b 178 776 285 875 218 824 b 64 979 115 790 44 921 b 271 1115 97 1029 182 1108 m 817 456 b 339 -47 790 239 585 -19 b 296 -50 325 -49 310 -50 b -15 293 104 -50 -15 106 b -11 346 -15 310 -14 329 b 468 844 18 610 231 818 b 508 847 481 846 494 847 b 818 506 696 847 818 689 b 817 456 818 489 818 472 m 518 326 b 443 467 522 375 513 474 b 346 343 386 460 354 399 b 431 197 339 272 364 189 b 518 326 489 204 513 283 "},"š":{"ha":733,"x_min":0,"x_max":0,"o":"m 263 -69 b 71 44 196 -69 71 -50 b 194 239 71 122 126 200 b 0 463 82 257 -15 329 b 278 786 17 599 129 715 b 44 967 207 869 118 928 b 281 1069 90 1004 206 1061 b 372 1015 314 1063 354 1039 b 460 1124 403 1060 436 1097 b 568 1142 489 1136 529 1142 b 679 1128 608 1142 649 1136 b 456 850 638 1075 515 931 l 446 843 b 608 863 500 856 556 863 b 771 822 668 863 724 851 b 803 725 793 810 803 768 b 800 688 803 713 801 700 b 726 504 792 610 757 524 b 621 519 704 515 665 519 b 413 483 551 519 468 506 b 363 446 399 479 365 468 b 403 432 361 432 383 432 b 543 436 438 432 490 436 b 592 435 560 436 575 436 b 786 313 694 431 781 394 b 786 276 788 300 788 289 b 263 -69 757 78 457 -69 m 286 231 b 235 232 268 231 251 231 b 343 165 233 171 304 165 b 499 222 386 164 493 183 b 463 239 500 233 488 239 b 286 231 426 239 365 231 "},"ú":{"ha":789,"x_min":0,"x_max":0,"o":"m 842 881 b 867 640 857 801 867 719 b 860 526 867 601 864 564 b 356 -53 828 239 676 -12 b 294 -57 336 -56 315 -57 b -1 349 99 -57 -1 81 b 6 481 -1 390 1 433 b 26 608 11 522 18 563 b 415 753 64 654 281 738 b 381 528 401 688 389 608 b 368 319 372 456 368 382 b 410 158 368 219 381 149 b 474 349 440 168 463 243 b 481 508 479 397 481 451 b 465 778 481 597 476 692 b 799 879 538 824 701 869 b 842 881 814 881 831 882 m 478 1126 b 625 933 528 1147 649 986 b 282 756 526 883 401 846 b 211 860 240 769 201 838 b 478 1126 272 951 394 1072 "},"û":{"ha":789,"x_min":0,"x_max":0,"o":"m 842 881 b 867 640 857 801 867 719 b 860 526 867 601 864 564 b 356 -53 828 239 676 -12 b 294 -57 336 -56 315 -57 b -1 349 99 -57 -1 81 b 6 481 -1 390 1 433 b 26 608 11 522 18 563 b 415 753 64 654 281 738 b 381 528 401 688 389 608 b 368 319 372 456 368 382 b 410 158 368 219 381 149 b 474 349 440 168 463 243 b 481 508 479 397 481 451 b 465 778 481 597 476 692 b 799 879 538 824 701 869 b 842 881 814 881 831 882 m 492 1156 b 743 967 565 1067 665 1006 b 504 843 700 925 576 856 b 406 897 471 850 429 874 b 319 778 376 846 343 806 b 268 763 306 769 289 765 b 168 754 238 756 201 754 b 93 761 139 754 113 756 b 315 1069 135 818 256 978 b 492 1156 351 1096 422 1133 "},"ü":{"ha":789,"x_min":0,"x_max":0,"o":"m 842 881 b 867 640 857 801 867 719 b 860 526 867 601 864 564 b 356 -53 828 239 676 -12 b 294 -57 336 -56 315 -57 b -1 349 99 -57 -1 81 b 6 481 -1 390 1 433 b 26 608 11 522 18 563 b 415 753 64 654 281 738 b 381 528 401 688 389 608 b 368 319 372 456 368 382 b 410 158 368 219 381 149 b 474 349 440 168 463 243 b 481 508 479 397 481 451 b 465 778 481 597 476 692 b 799 879 538 824 701 869 b 842 881 814 881 831 882 m 103 882 b 331 1082 115 983 226 1082 b 428 999 389 1082 419 1047 b 644 1157 460 1083 556 1157 b 742 1032 718 1157 750 1103 b 514 846 729 926 617 846 b 418 917 458 846 426 874 b 199 771 385 832 288 771 b 103 882 129 771 94 817 "},"ù":{"ha":789,"x_min":0,"x_max":0,"o":"m 842 881 b 867 640 857 801 867 719 b 860 526 867 601 864 564 b 356 -53 828 239 676 -12 b 294 -57 336 -56 315 -57 b -1 349 99 -57 -1 81 b 6 481 -1 390 1 433 b 26 608 11 522 18 563 b 415 753 64 654 281 738 b 381 528 401 688 389 608 b 368 319 372 456 368 382 b 410 158 368 219 381 149 b 474 349 440 168 463 243 b 481 508 479 397 481 451 b 465 778 481 597 476 692 b 799 879 538 824 701 869 b 842 881 814 881 831 882 m 165 858 b 324 1122 142 892 253 1090 b 621 967 454 1090 571 1010 b 543 831 624 935 575 853 b 219 860 464 849 343 860 b 165 858 201 860 183 858 "},"ý":{"ha":811,"x_min":0,"x_max":0,"o":"m 524 1167 b 671 974 574 1188 694 1026 b 340 806 575 925 456 889 b 354 803 344 806 350 804 b 436 453 350 704 378 513 b 543 857 492 592 532 733 b 631 881 554 874 586 881 b 931 772 750 881 946 826 b 456 -44 856 474 599 83 b 368 -69 432 -61 401 -69 b 153 26 267 -69 143 -4 b 275 190 204 96 218 111 l 281 200 b 28 563 172 238 47 431 b 317 801 40 646 226 779 b 257 900 279 822 249 881 b 524 1167 318 992 442 1113 "},"ÿ":{"ha":811,"x_min":0,"x_max":0,"o":"m 281 200 b 28 563 172 238 47 431 b 354 803 43 661 297 828 b 436 453 350 704 378 513 b 543 857 492 592 532 733 b 631 881 554 874 586 881 b 931 772 750 881 946 826 b 456 -44 856 474 599 83 b 368 -69 432 -61 401 -69 b 153 26 267 -69 143 -4 b 275 190 204 96 218 111 m 97 907 b 326 1107 110 1008 221 1107 b 422 1024 383 1107 415 1072 b 640 1182 456 1108 550 1182 b 736 1057 713 1182 744 1128 b 508 871 724 951 611 871 b 413 942 454 871 421 899 b 193 796 381 857 282 796 b 97 907 124 796 90 842 "},"ž":{"ha":726,"x_min":0,"x_max":0,"o":"m 790 885 b 817 757 808 872 817 818 b 810 656 817 724 814 689 b 774 501 804 606 797 550 b 260 182 621 411 396 294 b 689 243 397 190 565 217 b 724 131 711 239 731 181 b 714 93 722 118 718 104 b 40 -62 607 15 200 -62 b -12 -57 17 -62 -1 -60 b -33 38 -24 -40 -33 -1 b -26 92 -33 56 -32 75 b 369 474 6 183 190 339 b 44 381 281 457 135 406 b 15 522 24 399 15 457 b 21 619 15 556 18 589 b 47 731 26 668 35 706 b 292 811 96 756 188 785 b 61 1013 226 903 135 968 b 310 1118 107 1050 238 1108 b 403 1054 343 1106 383 1079 b 499 1167 438 1103 475 1140 b 551 1178 515 1172 531 1178 b 606 1181 568 1179 586 1181 b 725 1164 651 1181 697 1175 b 481 875 681 1110 547 963 b 403 836 461 863 433 849 b 790 885 543 867 693 888 "},"€":{"ha":1007,"x_min":0,"x_max":0,"o":"m 956 860 b 965 788 963 843 967 817 b 847 518 958 688 897 543 b 738 543 817 532 779 543 b 522 418 656 543 569 500 b 661 443 574 429 622 438 b 728 453 688 449 710 451 b 756 356 754 426 763 388 b 736 317 756 339 746 324 b 504 264 664 300 582 283 b 633 182 522 206 578 182 b 931 396 743 182 863 293 b 992 322 981 396 994 361 b 474 -64 960 92 689 -64 b 161 182 311 -64 186 28 b 63 156 121 172 88 163 b 51 231 49 169 47 200 b 79 304 56 257 65 288 l 165 328 b 833 878 218 640 524 878 b 956 860 881 878 926 871 "},"Č":{"ha":731,"x_min":0,"x_max":0,"o":"m 660 224 b 718 128 696 226 732 156 b 326 -54 622 36 476 -43 b 290 -56 314 -56 301 -56 b -12 247 118 -56 -12 49 b -10 294 -12 263 -11 279 b 324 771 6 478 151 665 b 76 954 250 856 153 915 b 317 1078 119 994 243 1064 b 414 1022 349 1069 392 1046 b 500 1143 443 1074 478 1114 b 551 1157 515 1150 531 1156 b 651 1167 582 1164 618 1167 b 726 1158 681 1167 707 1164 b 506 850 685 1101 565 943 l 499 846 b 599 858 532 854 567 858 b 653 856 617 858 635 857 b 743 657 719 844 743 746 b 740 603 743 639 743 619 b 715 518 735 565 726 533 b 664 528 701 525 682 528 b 344 274 546 528 361 411 b 464 154 338 210 375 154 b 660 224 531 154 592 178 "},"č":{"ha":731,"x_min":0,"x_max":0,"o":"m 660 224 b 718 128 696 226 732 156 b 326 -54 622 36 476 -43 b 290 -56 314 -56 301 -56 b -12 247 118 -56 -12 49 b -10 294 -12 263 -11 279 b 324 771 6 478 151 665 b 76 954 250 856 153 915 b 317 1078 119 994 243 1064 b 414 1022 349 1069 392 1046 b 500 1143 443 1074 478 1114 b 551 1157 515 1150 531 1156 b 651 1167 582 1164 618 1167 b 726 1158 681 1167 707 1164 b 506 850 685 1101 565 943 l 499 846 b 599 858 532 854 567 858 b 653 856 617 858 635 857 b 743 657 719 844 743 746 b 740 603 743 639 743 619 b 715 518 735 565 726 533 b 664 528 701 525 682 528 b 344 274 546 528 361 411 b 464 154 338 210 375 154 b 660 224 531 154 592 178 "},"Ě":{"ha":718,"x_min":0,"x_max":0,"o":"m 93 -44 b 29 -6 71 -47 33 -35 b 10 321 17 64 10 193 b 24 625 10 436 15 551 b 39 693 28 657 32 681 b 272 788 54 708 149 747 b 36 957 200 867 108 921 b 276 1081 81 999 204 1068 b 374 1026 308 1074 351 1050 b 460 1146 404 1078 438 1118 b 511 1161 475 1154 492 1158 b 611 1169 543 1168 579 1169 b 686 1163 642 1169 668 1168 b 465 854 644 1106 525 946 l 440 836 b 788 900 563 868 690 896 b 821 794 811 894 821 851 b 818 725 821 772 819 749 b 761 543 808 651 786 575 b 367 474 663 532 533 517 b 358 404 364 456 363 431 b 640 463 439 431 625 471 b 658 354 664 433 667 389 b 642 310 657 338 651 319 b 354 256 557 304 432 281 b 356 185 354 225 354 200 b 708 247 449 210 606 242 b 733 174 726 242 733 208 b 710 69 733 132 724 85 b 93 -44 522 50 360 14 "},"ě":{"ha":718,"x_min":0,"x_max":0,"o":"m 49 -57 b 10 317 22 -47 10 132 b 24 625 10 432 15 550 b 39 693 28 657 32 681 b 272 788 54 708 149 747 b 36 957 200 867 108 921 b 276 1081 81 999 204 1068 b 374 1026 308 1074 351 1050 b 460 1146 404 1078 438 1118 b 511 1161 475 1154 492 1158 b 611 1169 543 1168 579 1169 b 686 1163 642 1169 668 1168 b 465 854 644 1106 525 946 l 440 836 b 788 900 563 868 690 896 b 821 794 811 894 821 851 b 818 725 821 772 819 749 b 761 543 808 651 786 575 b 367 474 663 532 533 517 b 358 404 364 456 363 431 b 640 463 439 431 625 471 b 658 354 664 433 667 389 b 642 310 657 338 651 319 b 354 256 557 304 432 281 b 356 185 354 225 354 200 b 693 271 463 203 569 225 b 717 163 715 264 721 207 b 696 106 714 136 706 114 b 49 -57 493 17 285 -32 "},"Ř":{"ha":769,"x_min":0,"x_max":0,"o":"m 819 240 b 822 206 822 231 824 218 b 689 25 815 143 768 47 b 379 165 581 -4 425 118 b 386 46 381 124 381 83 b 97 -61 363 0 147 -74 b 26 557 58 17 26 342 b 36 718 26 625 29 682 b 240 818 90 758 163 793 b 13 979 168 892 82 943 b 253 1103 56 1019 181 1089 b 350 1047 285 1094 328 1071 b 436 1168 381 1099 414 1139 b 488 1182 451 1175 468 1181 b 588 1192 518 1189 556 1192 b 663 1183 618 1192 643 1189 b 442 875 621 1126 501 968 b 415 857 433 868 425 864 b 518 865 451 863 486 865 b 846 603 678 865 869 804 b 603 261 832 486 753 369 b 750 222 626 240 693 221 b 819 240 779 222 804 228 m 388 506 b 383 410 386 472 383 443 b 386 344 383 392 385 369 b 531 469 453 374 524 417 b 476 526 535 506 511 526 b 388 506 449 526 418 518 "},"ř":{"ha":769,"x_min":0,"x_max":0,"o":"m 819 240 b 822 206 822 231 824 218 b 689 25 815 143 768 47 b 379 165 581 -4 425 118 b 386 46 381 124 381 83 b 97 -61 363 0 147 -74 b 26 557 58 17 26 342 b 36 718 26 625 29 682 b 240 818 90 758 163 793 b 13 979 168 892 82 943 b 253 1103 56 1019 181 1089 b 350 1047 285 1094 328 1071 b 436 1168 381 1099 414 1139 b 488 1182 451 1175 468 1181 b 588 1192 518 1189 556 1192 b 663 1183 618 1192 643 1189 b 442 875 621 1126 501 968 b 415 857 433 868 425 864 b 518 865 451 863 486 865 b 846 603 678 865 869 804 b 603 261 832 486 753 369 b 750 222 626 240 693 221 b 819 240 779 222 804 228 m 388 506 b 383 410 386 472 383 443 b 386 344 383 392 385 369 b 531 469 453 374 524 417 b 476 526 535 506 511 526 b 388 506 449 526 418 518 "},"Ť":{"ha":778,"x_min":0,"x_max":0,"o":"m 42 318 b 14 486 25 326 14 404 b 19 583 14 519 17 554 b 43 668 25 618 31 649 b 299 765 79 692 178 729 b 67 931 228 842 138 896 b 306 1056 110 972 233 1042 b 404 1000 339 1047 381 1024 b 490 1119 433 1051 468 1092 b 542 1135 506 1128 521 1132 b 642 1143 572 1142 608 1143 b 717 1136 671 1143 697 1142 b 494 828 675 1079 556 919 l 474 813 b 844 874 611 846 750 872 b 878 783 871 865 879 829 b 804 497 878 688 856 588 b 590 463 743 492 668 479 b 557 47 569 310 557 126 b 264 -46 540 8 325 -57 b 231 372 250 28 231 186 l 42 318 "},"ť":{"ha":778,"x_min":0,"x_max":0,"o":"m 42 318 b 14 486 25 326 14 404 b 19 583 14 519 17 554 b 43 668 25 618 31 649 b 299 765 79 692 178 729 b 67 931 228 842 138 896 b 306 1056 110 972 233 1042 b 404 1000 339 1047 381 1024 b 490 1119 433 1051 468 1092 b 542 1135 506 1128 521 1132 b 642 1143 572 1142 608 1143 b 717 1136 671 1143 697 1142 b 494 828 675 1079 556 919 l 474 813 b 844 874 611 846 750 872 b 878 783 871 865 879 829 b 804 497 878 688 856 588 b 590 463 743 492 668 479 b 557 47 569 310 557 126 b 264 -46 540 8 325 -57 b 231 372 250 28 231 186 l 42 318 "},"Ň":{"ha":838,"x_min":0,"x_max":0,"o":"m 564 -4 b 363 339 533 13 410 218 l 363 274 b 375 39 363 182 365 101 b 57 -49 354 1 133 -67 b 13 433 39 11 13 206 b 19 639 13 500 15 568 b 338 756 47 685 235 746 b 388 753 358 757 378 756 b 554 331 406 689 479 453 b 528 807 553 546 531 757 b 843 893 606 858 739 893 b 929 868 886 893 918 885 b 911 629 931 808 921 707 b 839 111 886 421 857 186 b 564 -4 804 57 597 -15 m 344 772 b 93 961 271 861 171 922 b 332 1085 136 1003 260 1071 b 431 1031 365 1078 407 1054 b 517 1150 460 1081 493 1121 b 568 1165 531 1157 547 1163 b 668 1174 599 1171 635 1174 b 743 1167 697 1174 724 1171 b 521 857 701 1108 581 950 b 344 772 485 831 414 793 "},"ň":{"ha":838,"x_min":0,"x_max":0,"o":"m 564 -4 b 363 339 533 13 410 218 l 363 274 b 375 39 363 182 365 101 b 57 -49 354 1 133 -67 b 13 433 39 11 13 206 b 19 639 13 500 15 568 b 338 756 47 685 235 746 b 388 753 358 757 378 756 b 554 331 406 689 479 453 b 528 807 553 546 531 757 b 843 893 606 858 739 893 b 929 868 886 893 918 885 b 911 629 931 808 921 707 b 839 111 886 421 857 186 b 564 -4 804 57 597 -15 m 344 772 b 93 961 271 861 171 922 b 332 1085 136 1003 260 1071 b 431 1031 365 1078 407 1054 b 517 1150 460 1081 493 1121 b 568 1165 531 1157 547 1163 b 668 1174 599 1171 635 1174 b 743 1167 697 1174 724 1171 b 521 857 701 1108 581 950 b 344 772 485 831 414 793 "},"Ď":{"ha":740,"x_min":0,"x_max":0,"o":"m 814 511 b 806 433 814 485 808 460 b 201 -50 760 197 556 -10 b 126 -54 176 -53 151 -54 b 61 -49 104 -54 81 -53 b 36 272 43 24 36 146 b 56 657 36 413 44 560 b 65 718 58 681 61 700 b 253 801 129 754 193 781 b 19 968 181 878 92 932 b 260 1092 64 1008 188 1078 b 357 1036 293 1083 335 1060 b 443 1156 388 1088 421 1128 b 494 1171 458 1164 475 1168 b 594 1181 526 1178 563 1181 b 669 1172 625 1181 651 1178 b 449 864 629 1115 508 956 b 424 847 442 858 433 853 l 450 851 b 524 857 476 856 501 857 b 814 511 790 857 818 606 m 531 344 b 451 446 543 413 518 454 b 382 418 426 443 406 432 b 374 297 376 371 374 332 b 379 206 374 263 376 232 b 531 344 463 224 518 278 "},"ď":{"ha":740,"x_min":0,"x_max":0,"o":"m 814 511 b 806 433 814 485 808 460 b 201 -50 760 197 556 -10 b 126 -54 176 -53 151 -54 b 61 -49 104 -54 81 -53 b 36 272 43 24 36 146 b 56 657 36 413 44 560 b 65 718 58 681 61 700 b 253 801 129 754 193 781 b 19 968 181 878 92 932 b 260 1092 64 1008 188 1078 b 357 1036 293 1083 335 1060 b 443 1156 388 1088 421 1128 b 494 1171 458 1164 475 1168 b 594 1181 526 1178 563 1181 b 669 1172 625 1181 651 1178 b 449 864 629 1115 508 956 b 424 847 442 858 433 853 l 450 851 b 524 857 476 856 501 857 b 814 511 790 857 818 606 m 531 344 b 451 446 543 413 518 454 b 382 418 426 443 406 432 b 374 297 376 371 374 332 b 379 206 374 263 376 232 b 531 344 463 224 518 278 "},"Ů":{"ha":789,"x_min":0,"x_max":0,"o":"m 639 993 b 549 818 631 931 596 867 b 799 879 628 847 731 872 b 842 881 814 881 831 882 b 867 640 857 801 867 719 b 860 526 867 601 864 564 b 356 -53 828 239 676 -12 b 294 -57 336 -56 315 -57 b -1 349 99 -57 -1 81 b 6 481 -1 390 1 433 b 26 608 11 522 18 563 b 289 726 53 642 174 693 b 197 889 228 746 189 804 b 501 1163 213 1031 358 1163 b 639 993 594 1163 651 1094 m 481 508 b 468 756 481 590 476 675 b 410 731 449 743 429 736 b 381 528 397 669 388 599 b 368 319 372 456 368 382 b 410 158 368 219 381 149 b 474 349 440 168 463 243 b 481 508 479 397 481 451 m 379 910 b 406 856 376 888 382 856 b 456 907 432 856 453 881 b 429 960 461 947 444 960 b 379 910 403 960 382 939 "},"ů":{"ha":789,"x_min":0,"x_max":0,"o":"m 639 993 b 549 818 631 931 596 867 b 799 879 628 847 731 872 b 842 881 814 881 831 882 b 867 640 857 801 867 719 b 860 526 867 601 864 564 b 356 -53 828 239 676 -12 b 294 -57 336 -56 315 -57 b -1 349 99 -57 -1 81 b 6 481 -1 390 1 433 b 26 608 11 522 18 563 b 289 726 53 642 174 693 b 197 889 228 746 189 804 b 501 1163 213 1031 358 1163 b 639 993 594 1163 651 1094 m 481 508 b 468 756 481 590 476 675 b 410 731 449 743 429 736 b 381 528 397 669 388 599 b 368 319 372 456 368 382 b 410 158 368 219 381 149 b 474 349 440 168 463 243 b 481 508 479 397 481 451 m 379 910 b 406 856 376 888 382 856 b 456 907 432 856 453 881 b 429 960 461 947 444 960 b 379 910 403 960 382 939 "}}}
